<?xml version="1.0" encoding="utf-8"?>
<!-- Generator: Adobe Illustrator 16.0.0, SVG Export Plug-In . SVG Version: 6.00 Build 0)  -->
<!DOCTYPE svg PUBLIC "-//W3C//DTD SVG 1.1//EN" "http://www.w3.org/Graphics/SVG/1.1/DTD/svg11.dtd">
<svg version="1.1" id="Layer_1" xmlns="http://www.w3.org/2000/svg" xmlns:xlink="http://www.w3.org/1999/xlink" x="0px" y="0px"
	 width="1984.252px" height="1984.252px" viewBox="0 0 1984.252 1984.252" enable-background="new 0 0 1984.252 1984.252"
	 xml:space="preserve">
<g>
	<g>
		<path fill="#61B96B" d="M1965.371,992.793c0,537.396-435.631,973.007-973.008,973.007c-537.368,0-972.99-435.611-972.99-973.007
			c0-537.366,435.622-972.981,972.99-972.981C1529.74,19.812,1965.371,455.427,1965.371,992.793L1965.371,992.793z"/>
	</g>
	<g>
		<path fill="#FFFFFF" d="M1450.956,1548.003c-37.996-9.137-81.284-13.943-81.284-43.289c0-25.005,28.373-31.738,52.901-31.738
			c26.934,0,54.839,10.099,57.719,41.839h40.885c-3.365-60.599-47.141-77.917-101.969-77.917c-33.31,0-70.312,12.25-85.604,40.687
			v-129.668h-6.247V1196.77c0-13.913,1.887-26.747,5.673-38.48c3.765-11.735,9.438-21.98,16.998-30.737
			c7.55-8.738,17.008-15.51,28.343-20.287c11.336-4.778,24.763-7.162,40.282-7.162c19.479,0,34.795,5.576,45.945,16.706
			c11.132,11.142,16.706,26.262,16.706,45.353v208.844h50.713v-202.87c0-16.716-1.693-31.924-5.069-45.653
			c-3.376-13.719-9.243-25.561-17.602-35.505c-8.348-9.934-19.305-17.688-32.829-23.274c-13.515-5.564-30.426-8.348-50.712-8.348
			c-45.75,0-79.163,18.701-100.238,56.084h-1.197v-48.923h-47.736v70.975c-2.875-6.131-6.109-12.092-9.719-17.878
			c-10.957-17.495-25.475-31.914-43.572-43.259c-18.097-11.327-40.865-16.999-68.313-16.999c-21.095,0-40.487,3.97-58.176,11.93
			c-17.718,7.968-33.022,19.1-45.955,33.412c-12.921,14.332-22.962,31.243-30.133,50.723c-0.091,0.248-0.175,0.5-0.264,0.748
			c-5.934-18.083-14.415-34.149-25.463-48.191c-11.729-14.916-26.454-26.738-44.156-35.495
			c-17.702-8.748-38.488-13.126-62.35-13.126c-21.487,0-41.183,3.873-59.073,11.638c-17.908,7.755-31.033,20.189-39.393,37.284
			h-1.188v-41.761H738.15v79.75c-6.123-15.025-14.303-28.382-24.545-40.07c-12.731-14.527-28.34-25.96-46.836-34.317
			c-18.494-8.349-40.086-12.523-64.74-12.523c-24.272,0-45.757,4.175-64.44,12.523c-18.714,8.357-34.421,19.79-47.15,34.317
			c-12.729,14.526-22.277,31.622-28.641,51.307c-6.366,19.703-9.548,40.885-9.548,63.556c0,22.68,3.182,43.765,9.548,63.255
			c6.363,19.488,15.912,36.497,28.641,51.015c12.729,14.526,28.437,25.871,47.15,34.015c18.684,8.145,40.168,12.23,64.44,12.23
			c24.654,0,46.246-4.086,64.74-12.23c18.496-8.144,34.104-19.488,46.836-34.015c10.242-11.683,18.422-24.979,24.545-39.881v158.715
			c-11.929,7.413-21.959,17.995-29.809,31.951h-0.961v-39.437h-38.479v214.837c-3.354-4.167-3.36-12.122-3.36-24.372v-127.939
			c0-58.204-48.579-68.304-93.309-68.304c-55.313,0-102.931,21.648-105.335,83.21h40.882c1.925-36.556,27.416-47.132,62.047-47.132
			c25.973,0,55.312,5.77,55.312,41.362c0,30.785-38.478,27.896-83.688,36.556c-42.328,8.173-84.172,20.199-84.172,76.478
			c0,49.535,37.035,69.734,82.246,69.734c34.63,0,64.933-12.016,87.538-38.472c0,26.932,13.468,38.472,34.631,38.472
			c11.984,0,20.687-2.051,27.63-5.77h20.462v-140.442c0-44.729,24.049-77.918,73.59-77.918c31.263,0,50.501,19.723,50.501,50.022
			v168.338h40.884v-61.057c16.351,37.736,49.377,63.946,99.081,63.946c31.268,0,63.97-14.916,77.436-45.215h0.964v16.355
			c0,55.792-21.163,94.273-74.551,94.273c-26.937,0-62.528-10.586-64.452-40.407h-40.883c2.405,54.351,56.274,73.11,102.93,73.11
			c78.396,0,115.438-41.362,115.438-122.169v-41.628c16.932,41.899,51.914,68.56,107.254,68.56
			c43.318,0,76.769-17.983,94.741-51.688v45.919h40.886v-34.259c17.977,28.632,53.218,40.028,92.824,40.028
			c50.498,0,105.813-19.235,105.813-78.395C1532.241,1570.616,1491.831,1557.149,1450.956,1548.003z M690.646,1266.885
			c-4.986,14.526-11.844,26.66-20.599,36.399c-8.755,9.749-18.999,17.212-30.733,22.379c-11.731,5.168-24.159,7.756-37.285,7.756
			c-13.128,0-25.569-2.588-37.303-7.756c-11.73-5.167-21.978-12.63-30.718-22.379c-8.753-9.739-15.625-21.873-20.598-36.399
			c-4.97-14.518-7.458-31.117-7.458-49.827c0-18.691,2.488-35.292,7.458-49.828c4.973-14.517,11.845-26.738,20.598-36.691
			c8.74-9.935,18.987-17.504,30.718-22.68c11.733-5.168,24.175-7.756,37.303-7.756c13.126,0,25.554,2.588,37.285,7.756
			c11.734,5.176,21.979,12.745,30.733,22.68c8.755,9.953,15.612,22.175,20.599,36.691c4.959,14.536,7.457,31.137,7.457,49.828
			C698.103,1235.768,695.605,1252.367,690.646,1266.885z M624.659,1604.759c0,22.612-22.126,56.277-75.995,56.277
			c-25.01,0-48.098-9.622-48.098-36.556c0-30.299,23.088-39.921,50.022-44.729c27.415-4.806,58.198-5.292,74.07-16.833V1604.759z
			 M1071.486,1153.502c4.379-10.528,10.344-19.772,17.894-27.73c7.56-7.97,16.609-14.227,27.157-18.809
			c10.547-4.563,22.369-6.86,35.514-6.86c12.728,0,24.354,2.297,34.892,6.86c10.547,4.582,19.703,10.741,27.459,18.506
			c7.754,7.756,13.913,16.998,18.486,27.74c4.583,10.742,7.258,22.087,8.065,34.017h-177.222
			C1064.52,1175.296,1067.107,1164.059,1071.486,1153.502z M1063.731,1231.974h212.901v41.177h-36.866
			c-4.388,20.287-13.427,35.407-27.155,45.352c-13.729,9.943-31.331,14.917-52.806,14.917c-16.717,0-31.233-2.773-43.571-8.359
			c-12.328-5.564-22.466-13.018-30.435-22.379c-7.96-9.341-13.72-20.072-17.3-32.216
			C1064.917,1258.332,1063.323,1245.508,1063.731,1231.974z M792.157,1174.1c3.372-13.934,8.849-26.349,16.416-37.295
			c7.539-10.946,17.307-19.781,29.229-26.554c11.938-6.762,26.457-10.148,43.571-10.148c16.309,0,30.526,3.191,42.655,9.546
			c12.128,6.373,22.086,14.926,29.844,25.657c7.746,10.742,13.508,22.983,17.305,36.711c3.77,13.72,5.669,27.73,5.669,42.063
			c0,15.12-1.601,29.833-4.781,44.155s-8.36,27.059-15.515,38.199c-7.157,11.132-16.608,20.082-28.341,26.835
			c-11.733,6.772-26.363,10.149-43.858,10.149c-17.513,0-32.427-3.28-44.76-9.848c-12.332-6.559-22.372-15.207-30.129-25.959
			c-7.761-10.742-13.428-23.158-17.006-37.296c-3.578-14.108-5.369-28.722-5.369-43.854
			C787.087,1202.141,788.769,1188.032,792.157,1174.1z M976.246,1658.146c-53.868,0-70.222-50.021-70.222-94.75
			c0-47.618,21.162-90.421,73.589-90.421c51.465,0,70.701,45.205,70.701,88.98
			C1050.314,1608.611,1030.115,1658.146,976.246,1658.146z M1090.722,1506.356v-63.681h-38.481v35.593h-0.478
			c-14.916-27.419-42.812-41.371-74.073-41.371c-57.11,0-89.029,31.963-104.052,70.608c-5.018-42.355-27.73-70.608-84.492-70.608
			c-0.09,0-0.178,0.003-0.268,0.003v-107.062h1.188c5.572,9.156,12.43,16.813,20.596,22.973
			c8.143,6.178,16.803,11.033,25.953,14.614c9.151,3.58,18.397,6.178,27.74,7.765c9.342,1.585,17.811,2.383,25.365,2.383
			c23.463,0,44.062-4.173,61.762-12.532c17.688-8.347,32.411-19.779,44.159-34.308c11.142-13.795,19.598-29.845,25.362-48.14
			c6.164,19.17,15.23,35.713,27.208,49.639c12.337,14.312,27.537,25.453,45.653,33.412c18.098,7.959,39.465,11.929,64.15,11.929
			c34.989,0,64.033-8.736,87.113-26.251c13.154-9.981,23.648-22.756,31.504-38.3v57.983h16.085v127.368
			c-16.284-34.418-46.668-61.476-97.154-61.476C1147.759,1436.897,1109.272,1464.154,1090.722,1506.356z M1264.832,1543.197
			h-142.856c2.89-37.996,28.382-70.222,71.185-70.222C1233.568,1472.976,1262.904,1504.237,1264.832,1543.197z M1263.868,1612.455
			c-7.22,32.226-30.786,48.581-64.452,48.581c-54.351,0-78.881-38.481-77.44-81.77h170.742v33.188H1263.868z M1428.83,1661.036
			c-33.666,0-65.415-11.539-66.854-48.095h-28.372v-75.212c13.492,24.042,43.912,33.277,74.064,40.097
			c40.885,9.136,81.284,14.43,81.284,46.179C1488.952,1655.267,1454.323,1661.036,1428.83,1661.036z"/>
		<path fill="#FFFFFF" d="M1553.228,439.853c-20.891-50.475-50.461-87.961-88.729-112.487
			c-38.269-24.531-83.881-36.794-136.794-36.794c-81.469,0-145.064,31.049-190.708,93.142
			c-13.332,18.347-24.486,40.354-33.492,65.978c-1.239-3.358-2.518-6.639-3.841-9.838c-20.882-50.475-50.45-87.961-88.728-112.487
			c-38.285-24.531-83.891-36.794-136.775-36.794c-81.514,0-145.094,31.049-190.77,93.142
			c-18.656,25.698-33.061,58.557-43.243,98.535V307.771h-195.18l-45.226,171.658h95.802v530.827h144.604V827.133
			c3.809,13.909,8.203,26.667,13.196,38.245c21.033,48.76,50.111,85.09,87.25,109.01c37.123,23.91,82.947,35.868,137.499,35.868
			c54.554,0,99.72-11.89,135.557-35.636c35.817-23.778,64.325-60.959,85.498-111.571c1.163-2.775,2.289-5.622,3.388-8.52
			c1.404,3.719,2.854,7.344,4.367,10.849c21.035,48.76,50.109,85.09,87.248,109.01c37.111,23.91,82.987,35.868,137.523,35.868
			c54.537,0,99.714-11.89,135.529-35.636c35.826-23.778,64.335-60.959,85.518-111.571c21.201-50.612,31.797-121.417,31.797-212.41
			C1584.519,560.576,1574.099,490.328,1553.228,439.853z"/>
	</g>
</g>
</svg>
