<?xml version="1.0" encoding="utf-8"?>
<!-- Generator: Adobe Illustrator 16.0.0, SVG Export Plug-In . SVG Version: 6.00 Build 0)  -->
<!DOCTYPE svg PUBLIC "-//W3C//DTD SVG 1.1//EN" "http://www.w3.org/Graphics/SVG/1.1/DTD/svg11.dtd">
<svg version="1.1" id="Layer_1" xmlns="http://www.w3.org/2000/svg" xmlns:xlink="http://www.w3.org/1999/xlink" x="0px" y="0px"
	 width="1984.252px" height="1984.252px" viewBox="0 0 1984.252 1984.252" enable-background="new 0 0 1984.252 1984.252"
	 xml:space="preserve">
<g>
	<g>
		<path d="M954.03,18.23c25.286,0,50.572,0,75.858,0c0.883,0.268,1.754,0.721,2.65,0.776c11.311,0.692,22.634,1.205,33.938,1.999
			c46.106,3.238,91.694,10.099,136.801,20.1c81.133,17.987,158.672,45.964,232.598,83.963
			c97.696,50.219,184.423,115.141,260.208,194.587c69.932,73.312,127.139,155.553,171.342,246.767
			c55.738,115.015,87.445,236.328,95.314,363.888c0.463,7.521,1.172,15.026,1.768,22.538c0,25.287,0,50.572,0,75.858
			c-0.271,1.045-0.74,2.083-0.781,3.137c-1.945,50.102-7.932,99.717-17.652,148.897c-17.814,90.122-47.873,175.961-90.221,257.467
			c-54.18,104.282-124.93,195.825-212.127,274.596c-86.43,78.076-183.722,138.854-291.95,181.919
			c-126.305,50.258-257.521,72.571-393.334,68.122c-45.222-1.481-90.111-6.147-134.694-13.919
			c-96.037-16.742-187.447-47.287-274.217-91.696c-102.243-52.326-192.429-120.646-270.553-204.807
			c-83.789-90.264-148.291-192.736-193.193-307.437c-37.049-94.642-58.564-192.743-64.617-294.222
			c-0.438-7.36-1.164-14.705-1.756-22.058c0-25.286,0-50.571,0-75.858c0.271-1.368,0.73-2.729,0.787-4.106
			c2.319-57.085,9.73-113.51,22.078-169.278c18.038-81.464,46.139-159.315,84.393-233.467
			c53.027-102.788,122.156-193.334,207.301-271.6c80.834-74.303,171.627-133.364,272.43-176.901
			c103.812-44.836,212.205-70.622,325.09-77.498C939.011,19.538,946.517,18.824,954.03,18.23z M495.311,473.872
			c0,177.137,0,353.709,0,530.232c48.519,0,96.433,0,144.707,0c0-59.508,0-118.728,0-178.236c0.592,0.47,0.941,0.606,1.032,0.842
			c0.52,1.354,1.031,2.717,1.447,4.106c5.829,19.453,13.857,37.975,23.609,55.766c29.463,53.746,72.249,91.434,132.06,107.691
			c49.185,13.369,98.899,13.764,148.593,2.614c39.614-8.889,73.677-27.815,101.361-57.788c21.13-22.875,36.614-49.299,48.934-77.718
			c1.588-3.663,3.144-7.341,4.795-11.202c5.316,11.146,10.078,22.067,15.617,32.579c29.223,55.458,72.397,94.429,133.634,111.425
			c43.46,12.063,87.61,13.175,131.964,6.182c57.33-9.04,103.5-36.52,137.102-84.338c30.937-44.028,47.371-93.508,55.31-146.224
			c7.037-46.736,9.051-93.757,8.316-140.958c-0.564-36.316-2.74-72.489-8.301-108.415c-6.152-39.746-16.678-78.075-35.68-113.838
			c-29.215-54.98-72.507-93.001-132.638-110.806c-37.979-11.246-76.77-13.38-115.952-8.795
			c-26.727,3.127-52.392,10.312-76.298,22.861c-51.949,27.27-87.062,69.382-108.188,123.674c-1.111,2.858-2.236,5.71-3.466,8.848
			c-5.532-11.817-10.419-23.263-16.132-34.278c-25.219-48.64-61.954-85.118-113.453-105.414
			c-44.723-17.626-91.154-21.325-138.503-15.223c-64.226,8.276-115.021,39.313-152.917,91.582
			c-19.357,26.7-31.177,56.923-40.17,88.384c-0.418,1.463-0.949,2.894-1.43,4.339c-0.271-0.056-0.544-0.113-0.816-0.169
			c0-56.35,0-112.698,0-169.279c-65.258,0-130.175,0-195.236,0c-15.037,57.096-30.019,113.977-45.184,171.556
			C431.648,473.872,463.181,473.872,495.311,473.872z M979.803,1700.584c0-2.499-0.005-4.578,0.001-6.657
			c0.107-40.509,0.076-81.019,0.387-121.526c0.145-18.772,3.27-37.065,11.121-54.325c11.717-25.759,36.667-42.157,68.37-43.938
			c0,109.631,0,219.224,0,328.896c15.075,0,29.419,0,44.385,0c0-46.01,0-91.716,0-138.132
			c27.13,35.585,63.587,45.222,104.938,40.749c42.514-4.599,72.225-27.751,90.812-66.186c0.465,1.13,0.847,1.853,1.069,2.621
			c8.382,29.027,27.918,47.408,55.991,56.516c37.357,12.119,75.093,11.524,112.156-1.141c33.532-11.46,57.699-36.227,55.869-79.767
			c-0.68-16.152-6.042-30.369-17.758-41.853c-12.65-12.398-28.402-19.238-45.077-23.708c-21.556-5.778-43.411-10.431-65.074-15.817
			c-12.583-3.129-25.048-6.809-35.641-14.751c-12.209-9.154-15.426-24.667-7.856-37.161c4.908-8.104,12.64-12.445,21.328-15.069
			c18.205-5.499,36.74-6.161,55.184-1.667c17.879,4.356,31.588,14.01,36.925,32.753c0.872,3.064,1.381,6.231,2.071,9.413
			c14.718,0,29.232,0,44.122,0c-0.314-3.342-0.509-6.383-0.899-9.397c-4.205-32.426-20.769-55.159-52.058-66.361
			c-14.003-5.013-28.528-7.056-43.288-7.999c-24.106-1.539-47.596,0.924-69.77,11.116c-22.736,10.451-38.83,26.645-43.482,52.229
			c-0.575,3.159-0.839,6.375-1.416,10.89c-1.116-2.538-1.618-3.714-2.148-4.876c-9.615-21.096-23.207-38.947-43.017-51.431
			c-30.048-18.935-62.794-22.079-96.803-14.994c-23.418,4.879-42.948,16.09-54.888,37.938c-0.137,0.25-0.784,0.22-1.584,0.416
			c0-15.592,0-30.934,0-46.441c-14.839,0-29.325,0-43.93,0c-0.121,1.059-0.192,1.854-0.307,2.644
			c-0.113,0.784-0.268,1.563-0.467,2.7c-39.684,3.657-63.946,27.848-81.812,61.285c0-18.477,0-36.952,0-55.418
			c-14.173,0-27.715,0-41.685,0c0,34.574,0,68.844,0,103.111c-6.843-34.375-21.022-64.387-49.862-85.691
			c-28.848-21.311-61.99-25.979-96.743-23.098c0-34.369,0-68.135,0-102.79c1.011,1.22,1.538,1.739,1.931,2.348
			c8.277,12.839,19.494,22.459,32.872,29.574c24.579,13.073,50.964,17.496,78.494,15.49c47.87-3.488,84.149-25.571,107.284-68.034
			c4.311-7.909,7.535-16.408,11.289-24.695c0.881,2.303,1.782,4.699,2.714,7.083c14.45,36.997,39.601,63.525,77.202,77.088
			c30.961,11.166,62.898,11.865,94.819,5.022c34.647-7.427,61.737-25.949,79.188-57.432c0.103-0.186,0.495-0.21,1.36-0.545
			c0,18.557,0,36.884,0,55.106c17.212,0,33.815,0,50.88,0c0-2.452,0-4.536,0-6.621c0-55.919-0.105-111.838,0.11-167.755
			c0.034-8.693,0.859-17.508,2.465-26.052c9.902-52.719,61.943-83.182,112.951-66.386c23.189,7.636,37.777,28.919,37.793,55.441
			c0.044,68.398,0.016,136.798,0.016,205.196c0,2.041,0,4.081,0,6.138c17.443,0,34.181,0,51.226,0c0-2.343,0-4.271,0-6.201
			c0-65.157,0.203-130.314-0.167-195.47c-0.077-13.368-1.392-26.885-3.71-40.055c-5.958-33.85-25.419-56.749-58.235-67.661
			c-15.699-5.22-32.041-6.358-48.471-5.933c-40.428,1.045-72.562,17.088-93.961,52.352c-0.681,1.121-1.52,2.146-2.285,3.215
			c-0.357-0.113-0.717-0.227-1.074-0.339c0-15.925,0-31.85,0-47.896c-16.127,0-31.638,0-47.848,0c0,22.815,0,45.419,0,68.022
			c-1.983-2.262-3.171-4.562-4.438-6.813c-17.28-30.699-41.341-53.623-75.846-63.353c-26.86-7.574-54.206-7.617-81.08,0.218
			c-44.761,13.05-74.419,42.827-92.209,85.25c-0.589,1.406-1.237,2.786-1.866,4.194c-0.568-0.299-0.767-0.335-0.805-0.434
			c-0.531-1.351-1.036-2.712-1.555-4.067c-10.575-27.557-26.356-51.333-51.326-67.831c-39.285-25.957-81.823-27.976-125.826-15.307
			c-22.034,6.344-39.581,18.95-50.339,39.842c-0.255,0.495-0.72,0.883-1.851,2.231c0-14.643,0-28.148,0-41.743
			c-17.211,0-33.933,0-51.277,0c0,25.521,0,50.615,0,75.708c-1.371-1.062-1.865-2.228-2.41-3.369
			c-16.17-33.907-41.695-57.804-76.953-70.808c-26.391-9.735-53.799-11.251-81.438-7.353c-47.67,6.726-84.631,30.408-105.56,74.05
			c-26.177,54.582-26.267,110.945-2.487,166.522c14.94,34.922,41.723,58.428,77.544,71.181c25.839,9.198,52.59,10.651,79.579,7.303
			c47.236-5.862,82.962-29.168,105.963-71.228c1.804-3.298,3.453-6.68,5.704-11.053c0.169,1.96,0.291,2.722,0.291,3.482
			c0.009,49.436,0.046,98.87-0.139,148.305c-0.007,1.881-1.71,4.431-3.376,5.527c-17.739,11.688-31.275,27.039-40.891,45.922
			c-1.295,2.544-2.592,5.086-4.178,8.197c-10.543-37.191-35.251-58.714-71.043-68.395c-18.299-4.949-36.991-6.245-55.882-4.47
			c-45.177,4.244-78.626,25.977-97.306,67.673c-18.746,41.838-20.164,85.359-7.568,129.123c8.729,30.329,26.582,54.19,54.869,69.282
			c21.271,11.348,44.281,14.726,68.138,14.322c51.032-0.865,87.325-25.803,105.757-73.01c0.414-1.061,1.035-2.041,1.811-3.544
			c1.391,3.048,2.422,5.417,3.542,7.744c13.577,28.218,34.521,48.615,63.929,59.916c22.885,8.794,46.635,10.671,70.753,7.763
			c44.772-5.397,77.812-27.859,96.772-69.153c5.638-12.279,8.91-25.644,12.735-36.941c0,15.316,0,32.487,0,49.658
			c0,17.102,0,34.204,0,51.37C950.503,1700.584,964.732,1700.584,979.803,1700.584z"/>
		<path fill-rule="evenodd" clip-rule="evenodd" fill="#FFFFFF" d="M495.311,473.872c-32.13,0-63.663,0-95.882,0
			c15.165-57.579,30.146-114.46,45.184-171.556c65.062,0,129.979,0,195.236,0c0,56.581,0,112.93,0,169.279
			c0.272,0.056,0.545,0.113,0.816,0.169c0.48-1.445,1.012-2.876,1.43-4.339c8.993-31.461,20.812-61.684,40.17-88.384
			c37.896-52.269,88.691-83.306,152.917-91.582c47.349-6.103,93.78-2.403,138.503,15.223
			c51.499,20.296,88.234,56.774,113.453,105.414c5.713,11.016,10.6,22.461,16.132,34.278c1.229-3.138,2.354-5.989,3.466-8.848
			c21.125-54.292,56.238-96.404,108.188-123.674c23.906-12.549,49.571-19.734,76.298-22.861
			c39.183-4.585,77.974-2.451,115.952,8.795c60.131,17.805,103.423,55.825,132.638,110.806
			c19.002,35.763,29.527,74.092,35.68,113.838c5.561,35.926,7.736,72.099,8.301,108.415c0.734,47.201-1.279,94.222-8.316,140.958
			c-7.939,52.716-24.373,102.195-55.31,146.224c-33.602,47.818-79.771,75.298-137.102,84.338
			c-44.354,6.993-88.504,5.882-131.964-6.182c-61.236-16.996-104.411-55.967-133.634-111.425
			c-5.539-10.512-10.301-21.434-15.617-32.579c-1.651,3.861-3.207,7.539-4.795,11.202c-12.319,28.419-27.804,54.843-48.934,77.718
			c-27.685,29.973-61.747,48.899-101.361,57.788c-49.693,11.149-99.408,10.755-148.593-2.614
			c-59.811-16.258-102.597-53.945-132.06-107.691c-9.752-17.791-17.78-36.312-23.609-55.766c-0.416-1.39-0.928-2.752-1.447-4.106
			c-0.091-0.235-0.44-0.372-1.032-0.842c0,59.509,0,118.729,0,178.236c-48.274,0-96.188,0-144.707,0
			C495.311,827.581,495.311,651.009,495.311,473.872z"/>
		<path fill-rule="evenodd" clip-rule="evenodd" fill="#FFFFFF" d="M979.803,1700.584c-15.071,0-29.3,0-44.252,0
			c0-17.166,0-34.269,0-51.37c0-17.171,0-34.342,0-49.658c-3.825,11.298-7.098,24.662-12.735,36.941
			c-18.96,41.294-52,63.756-96.772,69.153c-24.118,2.908-47.868,1.031-70.753-7.763c-29.408-11.301-50.352-31.698-63.929-59.916
			c-1.12-2.327-2.151-4.696-3.542-7.744c-0.775,1.503-1.396,2.483-1.811,3.544c-18.432,47.207-54.725,72.145-105.757,73.01
			c-23.856,0.403-46.866-2.975-68.138-14.322c-28.287-15.092-46.14-38.953-54.869-69.282
			c-12.596-43.764-11.178-87.285,7.568-129.123c18.68-41.696,52.129-63.429,97.306-67.673c18.891-1.775,37.583-0.479,55.882,4.47
			c35.792,9.681,60.5,31.203,71.043,68.395c1.586-3.111,2.883-5.653,4.178-8.197c9.615-18.883,23.151-34.233,40.891-45.922
			c1.666-1.097,3.369-3.646,3.376-5.527c0.185-49.435,0.147-98.869,0.139-148.305c0-0.761-0.122-1.522-0.291-3.482
			c-2.251,4.373-3.9,7.755-5.704,11.053c-23.001,42.06-58.727,65.365-105.963,71.228c-26.989,3.349-53.74,1.896-79.579-7.303
			c-35.821-12.753-62.604-36.259-77.544-71.181c-23.779-55.577-23.689-111.94,2.487-166.522
			c20.929-43.642,57.89-67.324,105.56-74.05c27.639-3.898,55.047-2.383,81.438,7.353c35.258,13.004,60.783,36.9,76.953,70.808
			c0.545,1.142,1.039,2.307,2.41,3.369c0-25.093,0-50.187,0-75.708c17.345,0,34.066,0,51.277,0c0,13.595,0,27.101,0,41.743
			c1.131-1.349,1.596-1.736,1.851-2.231c10.758-20.892,28.305-33.498,50.339-39.842c44.003-12.669,86.541-10.65,125.826,15.307
			c24.97,16.498,40.751,40.274,51.326,67.831c0.519,1.355,1.023,2.717,1.555,4.067c0.038,0.099,0.236,0.135,0.805,0.434
			c0.629-1.408,1.277-2.788,1.866-4.194c17.79-42.423,47.448-72.2,92.209-85.25c26.874-7.835,54.22-7.792,81.08-0.218
			c34.505,9.729,58.565,32.653,75.846,63.353c1.268,2.252,2.455,4.552,4.438,6.813c0-22.604,0-45.207,0-68.022
			c16.21,0,31.721,0,47.848,0c0,16.047,0,31.972,0,47.896c0.357,0.112,0.717,0.226,1.074,0.339c0.766-1.069,1.604-2.094,2.285-3.215
			c21.398-35.264,53.533-51.307,93.961-52.352c16.43-0.426,32.771,0.713,48.471,5.933c32.816,10.912,52.277,33.812,58.235,67.661
			c2.318,13.17,3.633,26.687,3.71,40.055c0.37,65.155,0.167,130.312,0.167,195.47c0,1.93,0,3.858,0,6.201
			c-17.045,0-33.782,0-51.226,0c0-2.057,0-4.097,0-6.138c0-68.398,0.028-136.798-0.016-205.196
			c-0.016-26.522-14.604-47.806-37.793-55.441c-51.008-16.796-103.049,13.667-112.951,66.386
			c-1.605,8.544-2.431,17.358-2.465,26.052c-0.216,55.917-0.11,111.836-0.11,167.755c0,2.085,0,4.169,0,6.621
			c-17.064,0-33.668,0-50.88,0c0-18.223,0-36.55,0-55.106c-0.865,0.335-1.258,0.359-1.36,0.545
			c-17.45,31.482-44.54,50.005-79.188,57.432c-31.921,6.843-63.858,6.144-94.819-5.022c-37.602-13.562-62.752-40.091-77.202-77.088
			c-0.932-2.384-1.833-4.78-2.714-7.083c-3.754,8.287-6.979,16.786-11.289,24.695c-23.135,42.463-59.414,64.546-107.284,68.034
			c-27.53,2.006-53.915-2.417-78.494-15.49c-13.378-7.115-24.595-16.735-32.872-29.574c-0.393-0.608-0.92-1.128-1.931-2.348
			c0,34.655,0,68.421,0,102.79c34.753-2.881,67.896,1.787,96.743,23.098c28.84,21.305,43.02,51.316,49.862,85.691
			c0-34.268,0-68.537,0-103.111c13.97,0,27.512,0,41.685,0c0,18.466,0,36.941,0,55.418c17.866-33.438,42.129-57.628,81.812-61.285
			c0.199-1.137,0.354-1.916,0.467-2.7c0.114-0.79,0.186-1.585,0.307-2.644c14.604,0,29.091,0,43.93,0c0,15.508,0,30.85,0,46.441
			c0.8-0.196,1.447-0.166,1.584-0.416c11.939-21.849,31.47-33.06,54.888-37.938c34.009-7.085,66.755-3.94,96.803,14.994
			c19.81,12.483,33.401,30.335,43.017,51.431c0.53,1.162,1.032,2.338,2.148,4.876c0.577-4.515,0.841-7.73,1.416-10.89
			c4.652-25.585,20.746-41.778,43.482-52.229c22.174-10.192,45.663-12.655,69.77-11.116c14.76,0.943,29.285,2.986,43.288,7.999
			c31.289,11.202,47.853,33.936,52.058,66.361c0.391,3.015,0.585,6.056,0.899,9.397c-14.89,0-29.404,0-44.122,0
			c-0.69-3.182-1.199-6.349-2.071-9.413c-5.337-18.743-19.046-28.396-36.925-32.753c-18.443-4.494-36.979-3.832-55.184,1.667
			c-8.688,2.624-16.42,6.965-21.328,15.069c-7.569,12.494-4.353,28.007,7.856,37.161c10.593,7.942,23.058,11.622,35.641,14.751
			c21.663,5.387,43.519,10.039,65.074,15.817c16.675,4.47,32.427,11.31,45.077,23.708c11.716,11.483,17.078,25.7,17.758,41.853
			c1.83,43.54-22.337,68.307-55.869,79.767c-37.063,12.665-74.799,13.26-112.156,1.141c-28.073-9.107-47.609-27.488-55.991-56.516
			c-0.223-0.769-0.604-1.491-1.069-2.621c-18.588,38.435-48.299,61.587-90.812,66.186c-41.352,4.473-77.809-5.164-104.938-40.749
			c0,46.416,0,92.122,0,138.132c-14.966,0-29.31,0-44.385,0c0-109.673,0-219.266,0-328.896c-31.703,1.78-56.653,18.179-68.37,43.938
			c-7.852,17.26-10.977,35.553-11.121,54.325c-0.311,40.508-0.279,81.018-0.387,121.526
			C979.798,1696.006,979.803,1698.085,979.803,1700.584z M697.698,1208.79c-0.052-21.248-3.712-43.941-14.958-64.842
			c-16.4-30.477-41.783-47.84-76.527-49.415c-34.834-1.581-62.211,12.81-81.176,42.197c-12.037,18.65-17.279,39.536-18.688,61.543
			c-1.604,25.059,0.624,49.568,11.06,72.688c15.3,33.896,41.499,53.693,78.778,55.899c37.167,2.201,65.891-13.729,84.916-45.877
			C693.824,1259.489,697.667,1235.619,697.698,1208.79z M786.6,1216.834c1.088,7.532,2.184,21.468,5.218,34.97
			c9.887,43.994,40.826,72.045,82.686,75.14c42.76,3.162,74.879-14.625,90.221-53.894c14.531-37.196,16.072-75.471,3.777-113.682
			c-12.627-39.236-40.989-61.731-80.285-64.85c-38.525-3.056-70.021,14.637-87.27,49.079
			C790.407,1164.645,787.392,1187.288,786.6,1216.834z M682.458,1518.667c-1.945-0.108-3.505-0.265-5.065-0.27
			c-8.586-0.024-17.177-0.22-25.753,0.081c-3.92,0.137-5.537-1.008-6.539-4.955c-5.502-21.673-18.037-37.358-39.696-44.744
			c-10.888-3.712-22.148-4.372-33.561-3.536c-30.316,2.222-52.833,16.413-64.358,44.783c-14.485,35.657-15.531,72.341-2.26,108.576
			c10.275,28.052,30.259,45.683,60.918,48.573c34.838,3.282,67.605-10.289,79.347-50.933c1.291-4.467,2.111-9.069,3.233-13.975
			c10.348,0,20.496,0,30.936,0C674.751,1574.071,675.339,1546.479,682.458,1518.667z M890.92,1566.232
			c-1.022-9.151-1.552-18.393-3.169-27.438c-3.552-19.868-11.358-37.92-26.184-52.037c-37.955-36.139-99.371-27.051-123.812,19.365
			c-19.795,37.594-19.987,77.077-2.465,115.641c13.252,29.163,37.184,44.946,69.417,45.731c32.786,0.8,57.093-14.219,72.667-43.059
			C887.156,1606.32,890.23,1586.618,890.92,1566.232z M1267.19,1572.54c0-28.085-3.306-45.668-10.944-61.555
			c-14.794-30.77-39.344-46.545-73.585-46.002c-33.854,0.536-57.46,17.103-70.245,48.217c-12.846,31.264-13.414,63.491-3.777,95.635
			c10.167,33.918,32.349,54.746,68.514,58.32c35.004,3.459,64.623-9.938,79.685-45.451
			C1264.489,1603.661,1267.048,1584.685,1267.19,1572.54z M1063.011,1226.292c0.647,8.062,0.768,15.98,1.996,23.725
			c4.536,28.608,18.211,51.321,44.165,65.466c22.103,12.046,45.842,14.042,70.234,9.936c30.247-5.092,49.765-22.46,58.162-52.093
			c0.596-2.104,1.151-4.22,1.784-6.542c12.361,0,24.285,0,36.262,0c0-13.695,0-27.029,0-40.491
			C1204.875,1226.292,1134.464,1226.292,1063.011,1226.292z M1312.397,1538.523c3.128,26.747,2.272,51.809-4.134,77.166
			c11.273,0,21.888,0,32.586,0c0.334,2.088,0.636,3.655,0.828,5.235c2.44,20.022,13.604,33.424,32.211,40.023
			c9.19,3.259,19.077,5.278,28.803,6.146c18.846,1.681,37.611,0.606,55.135-7.743c12.416-5.917,19.547-15.73,20.209-29.68
			c0.669-14.091-5.811-24.577-17.957-30.905c-8.536-4.448-17.666-8.194-26.953-10.668c-20.467-5.449-41.312-9.465-61.793-14.867
			C1349.056,1567.355,1327.88,1559.08,1312.397,1538.523z M1240.39,1181.017c-3.438-32.725-16.158-59.445-45.395-75.365
			c-31.104-16.938-62.758-16.227-92.539,3.227c-25.521,16.669-36.293,42.217-39.051,72.139
			C1122.591,1181.017,1181.019,1181.017,1240.39,1181.017z"/>
		<path fill-rule="evenodd" clip-rule="evenodd" d="M697.698,1208.79c-0.031,26.829-3.874,50.699-16.595,72.194
			c-19.025,32.148-47.749,48.078-84.916,45.877c-37.279-2.206-63.479-22.004-78.778-55.899c-10.436-23.12-12.663-47.63-11.06-72.688
			c1.408-22.007,6.65-42.893,18.688-61.543c18.965-29.388,46.342-43.778,81.176-42.197c34.744,1.575,60.127,18.938,76.527,49.415
			C693.986,1164.849,697.646,1187.542,697.698,1208.79z"/>
		<path fill-rule="evenodd" clip-rule="evenodd" d="M786.6,1216.834c0.792-29.546,3.807-52.189,14.347-73.236
			c17.248-34.442,48.744-52.135,87.27-49.079c39.296,3.118,67.658,25.613,80.285,64.85c12.295,38.211,10.754,76.485-3.777,113.682
			c-15.342,39.269-47.461,57.056-90.221,53.894c-41.859-3.095-72.799-31.146-82.686-75.14
			C788.784,1238.302,787.688,1224.366,786.6,1216.834z"/>
		<path fill-rule="evenodd" clip-rule="evenodd" d="M682.458,1518.667c-7.119,27.812-7.707,55.404-2.799,83.602
			c-10.439,0-20.588,0-30.936,0c-1.122,4.905-1.942,9.508-3.233,13.975c-11.741,40.644-44.509,54.215-79.347,50.933
			c-30.659-2.891-50.643-20.521-60.918-48.573c-13.271-36.235-12.226-72.919,2.26-108.576c11.525-28.37,34.042-42.562,64.358-44.783
			c11.412-0.836,22.673-0.176,33.561,3.536c21.659,7.386,34.194,23.071,39.696,44.744c1.002,3.947,2.619,5.092,6.539,4.955
			c8.576-0.301,17.167-0.105,25.753-0.081C678.954,1518.402,680.513,1518.559,682.458,1518.667z"/>
		<path fill-rule="evenodd" clip-rule="evenodd" d="M890.92,1566.232c-0.69,20.386-3.765,40.088-13.546,58.203
			c-15.574,28.84-39.881,43.858-72.667,43.059c-32.233-0.785-56.165-16.568-69.417-45.731
			c-17.522-38.563-17.33-78.047,2.465-115.641c24.441-46.416,85.857-55.504,123.812-19.365
			c14.825,14.117,22.632,32.169,26.184,52.037C889.369,1547.84,889.898,1557.081,890.92,1566.232z"/>
		<path fill-rule="evenodd" clip-rule="evenodd" d="M1267.19,1572.54c-0.142,12.145-2.701,31.121-10.354,49.164
			c-15.062,35.514-44.681,48.91-79.685,45.451c-36.165-3.574-58.347-24.402-68.514-58.32c-9.637-32.144-9.068-64.371,3.777-95.635
			c12.785-31.114,36.391-47.681,70.245-48.217c34.241-0.543,58.791,15.232,73.585,46.002
			C1263.884,1526.872,1267.19,1544.455,1267.19,1572.54z"/>
		<path fill-rule="evenodd" clip-rule="evenodd" d="M1063.011,1226.292c71.453,0,141.863,0,212.604,0c0,13.462,0,26.796,0,40.491
			c-11.977,0-23.9,0-36.262,0c-0.633,2.322-1.188,4.438-1.784,6.542c-8.397,29.633-27.915,47.001-58.162,52.093
			c-24.393,4.106-48.132,2.11-70.234-9.936c-25.954-14.145-39.629-36.857-44.165-65.466
			C1063.779,1242.272,1063.659,1234.354,1063.011,1226.292z"/>
		<path fill-rule="evenodd" clip-rule="evenodd" d="M1312.397,1538.523c15.483,20.557,36.659,28.832,58.935,34.707
			c20.48,5.402,41.326,9.418,61.793,14.867c9.287,2.474,18.417,6.22,26.953,10.668c12.146,6.328,18.626,16.814,17.957,30.905
			c-0.662,13.949-7.793,23.763-20.209,29.68c-17.523,8.35-36.289,9.424-55.135,7.743c-9.726-0.867-19.612-2.887-28.803-6.146
			c-18.607-6.6-29.771-20.001-32.211-40.023c-0.192-1.58-0.494-3.147-0.828-5.235c-10.698,0-21.312,0-32.586,0
			C1314.669,1590.332,1315.525,1565.271,1312.397,1538.523z"/>
		<path fill-rule="evenodd" clip-rule="evenodd" d="M1240.39,1181.017c-59.371,0-117.799,0-176.984,0
			c2.758-29.922,13.529-55.47,39.051-72.139c29.781-19.453,61.436-20.164,92.539-3.227
			C1224.232,1121.571,1236.952,1148.292,1240.39,1181.017z"/>
	</g>
</g>
</svg>
