<svg xmlns="http://www.w3.org/2000/svg" width="19.649" height="17.466" viewBox="0 0 19.649 17.466"><defs><style>.a{fill:#989898;}</style></defs><path class="a" d="M19.17,5.392,14.257.481a1.638,1.638,0,0,0-2.8,1.158V3.59a16.514,16.514,0,0,0-4.12.614A6.247,6.247,0,0,0,4.514,5.889,4.873,4.873,0,0,0,3.275,9.277a5.765,5.765,0,0,0,2.9,4.938,1.638,1.638,0,0,0,2.423-1.9c-.529-1.607-.585-2.419,2.869-2.687v1.835a1.638,1.638,0,0,0,2.8,1.158L19.17,7.707A1.637,1.637,0,0,0,19.17,5.392Zm-6.07,6.07V7.92c-4.39.066-7.42.791-6.062,4.907a4.172,4.172,0,0,1-2.126-3.55c0-3.73,4.405-4.058,8.187-4.088V1.637L18.012,6.55Zm.844,2.882a2.82,2.82,0,0,0,.715-.317.409.409,0,0,1,.624.348v1.453a1.637,1.637,0,0,1-1.637,1.637H1.637A1.637,1.637,0,0,1,0,15.828V3.82A1.637,1.637,0,0,1,1.637,2.183h4.5a.409.409,0,0,1,.409.409v.153a.408.408,0,0,1-.258.38,8.364,8.364,0,0,0-1.3.634.414.414,0,0,1-.214.061H1.842a.2.2,0,0,0-.2.2v11.6a.2.2,0,0,0,.2.2h11.6a.2.2,0,0,0,.2-.2v-.886A.41.41,0,0,1,13.943,14.344Z" transform="translate(0 0)"/></svg>