<svg width="363" height="477" viewBox="0 0 363 477" fill="none" xmlns="http://www.w3.org/2000/svg">
<path d="M168.255 112.345L226.435 171.193V53.199L168.255 112.345Z" fill="#DE8524"/>
<path d="M326.077 77.025V91.905L318.636 84.465L326.077 77.025Z" fill="#A5AC33"/>
<path d="M200.731 98.604V180.083L241.469 139.343L200.731 98.604Z" fill="#E0982B"/>
<path d="M256.716 124.097L226.436 154.378L226.435 154.377V213.176L255.834 183.778L256.717 182.895L256.716 124.097Z" fill="#E8B032"/>
<path d="M256.761 179.5V291.551L200.736 235.526L256.761 179.5Z" fill="#E8E544"/>
<path d="M311.561 204.603V314.626L256.55 259.615L311.561 204.603Z" fill="#84C28F"/>
<path d="M235.383 233.626L235.385 237.081L233.657 235.353L235.383 233.626Z" stroke="#5D5D5D" stroke-miterlimit="10"/>
<path d="M331.857 184.483V224.904L311.646 204.693L331.857 184.483Z" fill="#70A45B"/>
<path d="M31.772 253.524L31.771 293.946L11.5611 273.735L31.772 253.524Z" fill="#A62656"/>
<path d="M252.328 80.343L252.329 37.94L273.531 59.14L252.328 80.343Z" fill="#DAC73A"/>
<path d="M219.457 254.25L219.458 291.708L200.729 272.979L219.457 254.25Z" fill="#4A6ECE"/>
<path d="M219.459 291.709L219.458 254.249L238.189 272.98L219.459 291.709Z" fill="#AEC161"/>
<path d="M238.189 272.979V310.438L219.459 291.709L238.189 272.979Z" fill="#4A6ECE"/>
<path d="M257.059 291.85L257.06 329.309L238.331 310.58L257.059 291.85Z" fill="#2A3480"/>
<path d="M238.189 310.438V272.979L256.917 291.709L238.189 310.438Z" fill="#AEC161"/>
<path d="M221.275 365.094V406.188L200.728 385.641L221.275 365.094Z" fill="#2A418E"/>
<path d="M11.56 197.941V221.061L1.52588e-05 209.501L11.56 197.941Z" fill="#B32149"/>
<path d="M321.387 373.306V396.428L309.827 384.867L321.387 373.306Z" fill="#3659BC"/>
<path d="M311.561 314.626V273.532L332.108 294.079L311.561 314.626Z" fill="#5489C0"/>
<path d="M256.759 329.61L239.245 347.126V355.219L239.23 355.205V476.722L256.746 459.207L256.745 451.113L256.759 451.128V329.61Z" fill="#2A3480"/>
<path d="M200.729 272.978L200.731 180.082L247.178 226.529L200.729 272.978Z" fill="#E17432"/>
<path d="M256.548 369.638L256.55 259.615L311.561 314.626L256.548 369.638Z" fill="#64A1D2"/>
<path d="M94.5611 372.369V403.103L79.194 387.736L94.5611 372.369Z" fill="#6E1939"/>
<path d="M256.637 224.655L274.161 242.179L256.637 259.702V224.655Z" fill="#ABCF5F"/>
<path d="M294.039 297.103L321.545 324.61L294.037 352.118L294.039 297.103Z" fill="#5890C0"/>
<path d="M256.636 149.683L311.646 204.694L274.161 242.179L256.636 224.655V149.683Z" fill="#CBDB42"/>
<path d="M226.435 154.378V205.787L200.731 180.083L226.435 154.378Z" fill="#E1782A"/>
<path d="M234.149 56.118V19.761L252.328 37.939L234.149 56.118Z" fill="#E3BC37"/>
<path d="M228.254 0V14.531L220.989 7.266L228.254 0Z" fill="#DFAE2E"/>
<path d="M299.057 151.627L299.056 232.643L289.492 223.076V142.072L299.057 151.627Z" fill="#A6C442"/>
<path d="M241.683 139.556L241.682 94.578L264.171 117.069L241.683 139.556Z" fill="#E4BD36"/>
<path d="M300.717 164.333L300.718 119.354L323.207 141.843L300.717 164.333Z" fill="#B3BA36"/>
<path d="M342.312 281.209L342.311 240.254L362.79 260.732L342.312 281.209Z" fill="#5E9987"/>
<path d="M286.52 339.668L286.519 400.795L255.956 370.23L286.52 339.668Z" fill="#3658AE"/>
<path d="M200.722 442.595V385.64L229.2 414.118L200.722 442.595Z" fill="#3F3D8D"/>
<path d="M200.728 385.641L200.729 272.978L257.06 329.309L200.728 385.641Z" fill="#4D80C8"/>
<path d="M58.479 148.871V129.099L48.594 138.985L58.479 148.871Z" fill="#9B1F27"/>
<path d="M68.367 158.758L68.366 138.986L58.479 148.871L68.367 158.758Z" fill="#A41E32"/>
<path d="M78.252 168.644V148.872L68.367 158.758L78.252 168.644Z" fill="#B72D31"/>
<path d="M241.682 94.579L289.49 142.387V46.771L241.682 94.579Z" fill="#DACC3C"/>
<path d="M70.655 91.967L88.3091 109.62V74.314L70.655 91.967Z" fill="#AC331E"/>
<path d="M53.672 217.113L75.651 239.093V195.133L53.672 217.113Z" fill="#A72145"/>
<path d="M64.207 250.622L96.211 282.457L96.1261 218.702L64.207 250.622Z" fill="#B52B61"/>
<path d="M146.216 294.158L96.202 244.146V344.172L146.216 294.158Z" fill="#6A206D"/>
<path d="M196.669 83.931L178.689 65.951V101.91L196.669 83.931Z" fill="#E28A2F"/>
<path d="M163.075 61.31L134.135 32.37V90.249L163.075 61.31Z" fill="#D37020"/>
<path d="M154.944 91.892L126.003 62.952V120.832L154.944 91.892Z" fill="#BA3A1E"/>
<path d="M106.372 110.031L88.31 91.968V128.094L106.372 110.031Z" fill="#B9381E"/>
<path d="M178.79 77.024L163.076 61.31V92.739L178.79 77.024Z" fill="#D67122"/>
<path d="M178.79 108.453L163.076 92.739V124.168L178.79 108.453Z" fill="#D66825"/>
<path d="M163.076 92.739L178.791 108.454V77.025L163.076 92.739Z" fill="#CA3732"/>
<path d="M125.877 154.641L163.081 191.843V117.439L125.877 154.641Z" fill="#CB4823"/>
<path d="M214.61 46.771L196.547 28.708V64.834L214.61 46.771Z" fill="#E7BB32"/>
<path d="M31.772 166.073L53.6681 187.969V144.177L31.772 166.073Z" fill="#982227"/>
<path d="M315.128 117.439L337.024 139.335V95.543L315.128 117.439Z" fill="#90AB3C"/>
<path d="M337.025 117.439L348.415 128.828V106.049L337.025 117.439Z" fill="#6DA052"/>
<path d="M348.415 117.439L354.39 123.414V111.463L348.415 117.439Z" fill="#60863D"/>
<path d="M180.971 142.064L163.075 124.168V159.96L180.971 142.064Z" fill="#C6363A"/>
<path d="M163.076 159.96L180.972 177.856V142.064L163.076 159.96Z" fill="#CA3732"/>
<path d="M163.076 124.167L171.577 132.668V115.667L163.076 124.167Z" fill="#CA3732"/>
<path d="M171.577 132.668L180.077 141.168V124.167L171.577 132.668Z" fill="#CA3732"/>
<path d="M180.077 124.167L171.577 115.667V132.668L180.077 124.167Z" fill="#D25D1D"/>
<path d="M188.578 132.668L180.077 124.167V141.168L188.578 132.668Z" fill="#D25D1D"/>
<path d="M197.078 141.168L188.578 132.668V149.669L197.078 141.168Z" fill="#D25D1D"/>
<path d="M180.077 141.168L188.578 149.669V132.668L180.077 141.168Z" fill="#CA3732"/>
<path d="M188.578 149.669L197.078 158.169V141.168L188.578 149.669Z" fill="#CA3732"/>
<path d="M180.972 177.856L200.696 197.579V158.132L180.972 177.856Z" fill="#D9631F"/>
<path d="M160.976 308.916L146.222 294.162L146.223 323.67L160.976 308.916Z" fill="#7A3DA0"/>
<path d="M160.977 338.24L146.222 323.486L146.223 352.994L160.977 338.24Z" fill="#703F9D"/>
<path d="M160.977 367.562L146.223 352.808V382.316L160.977 367.562Z" fill="#423183"/>
<path d="M102.146 338.24L146.223 382.316L146.221 294.164L102.146 338.24Z" fill="#5E1E62"/>
<path d="M160.977 397.07L146.223 382.316V411.824L160.977 397.07Z" fill="#5C3586"/>
<path d="M189.87 349.511L171.603 331.244V367.777L189.87 349.511Z" fill="#4B3D9D"/>
<path d="M162.992 235.304L200.706 273.017V197.59L162.992 235.304Z" fill="#A9347B"/>
<path d="M200.706 197.59L163.081 159.965L162.993 235.304L200.706 197.59Z" fill="#D43E86"/>
<path d="M200.706 273.019L186.577 258.89L186.578 287.146L200.706 273.019Z" fill="#5843A7"/>
<path d="M186.578 258.89L162.993 235.304V282.474L186.578 258.89Z" fill="#792880"/>
<path d="M125.879 229.218L147.647 251.141L147.447 207.476L125.879 229.218Z" fill="#AC2775"/>
<path d="M92.7301 240.693L125.771 273.735L125.879 207.548L92.7301 240.693Z" fill="#A02264"/>
<path d="M147.647 251.141L125.879 229.218L125.771 273.735L147.647 251.141Z" fill="#912271"/>
<path d="M125.771 273.735L162.892 310.832L162.992 235.304L125.771 273.735Z" fill="#7C1F6F"/>
<path d="M162.921 310.799L200.584 348.463L200.704 273.015L162.921 310.799Z" fill="#3342A2"/>
<path d="M200.482 385.148L174.037 411.591L174.138 374.908L200.583 348.463L200.482 385.148Z" fill="#2E4497"/>
<path d="M125.879 207.549L96.1261 237.308V218.701L125.827 189.002L125.879 207.549Z" fill="#BC3E66"/>
<path d="M186.556 287.125L162.899 310.783L162.993 282.474L186.577 258.89L186.556 287.125Z" fill="#5648A9"/>
<path d="M53.9901 231.955L41.1001 244.845L41.1531 229.631L54.0451 216.738L53.9901 231.955Z" fill="#A72145"/>
<path d="M332.495 255.413L319.604 268.303L319.658 253.089L332.549 240.196L332.495 255.413Z" fill="#5F977C"/>
<path d="M278.688 435.56L269.593 444.655L269.633 433.919L278.728 424.825L278.688 435.56Z" fill="#314F9F"/>
<path d="M96.212 297.579L83.321 310.562V295.347L96.212 282.457V297.579Z" fill="#8F1F60"/>
<path d="M65.828 297.117L57.893 305.05L57.927 295.687L65.861 287.752L65.828 297.117Z" fill="#8D1C4D"/>
<path d="M125.839 188.988L75.735 239.093L75.721 171.197L126.087 120.833L125.839 188.988Z" fill="#B1273E"/>
<path d="M163.067 117.469L125.878 154.657L126.021 98.365L163.075 61.31L163.067 117.469Z" fill="#D15026"/>
<path d="M305.207 186.836L314.446 196.072L314.409 182.091L305.207 172.893V186.836Z" fill="#B3D143"/>
<path d="M162.992 235.304L147.647 251.141L147.448 207.475L163.08 191.842L162.992 235.304Z" fill="#C73274"/>
<path d="M125.827 189.002L96.1261 159.301V218.702L125.827 189.002Z" fill="#BA2E67"/>
<path d="M90.206 180.579L53.672 144.044V217.113L90.206 180.579Z" fill="#B5214A"/>
<path d="M198.864 159.964L180.973 142.072L180.972 177.856L198.864 159.964Z" fill="#D25D1D"/>
<path d="M205.579 149.669L197.078 141.168V158.169L205.579 149.669Z" fill="#D25D1D"/>
<path d="M197.078 158.169L205.579 166.67V149.669L197.078 158.169Z" fill="#CA3732"/>
<path d="M100.12 316.384V408.674L94.5611 403.116V310.833L100.12 316.384Z" fill="#5F1D62"/>
<path d="M226.435 39.585V110.965L220.875 105.406L220.876 34.033L226.435 39.585Z" fill="#E5C238"/>
<path d="M191.819 314.349L196.908 319.437L196.887 313.348L191.815 308.276L191.819 314.349Z" fill="white"/>
<path d="M191.82 323.666L196.908 328.754L196.887 322.665L191.815 317.592L191.82 323.666Z" fill="white"/>
<path d="M191.82 332.982L196.908 338.07L196.887 331.981L191.815 326.909L191.82 332.982Z" fill="white"/>
<path d="M85.289 204.686V285.703L75.722 276.136L75.724 195.132L85.289 204.686Z" fill="#C53074"/>
<path d="M251.734 161.49L289.588 199.341L289.49 142.051L251.734 104.359V161.49Z" fill="#A8AB33"/>
<path d="M266.621 162.799V139.897L255.17 151.347L266.621 162.799Z" fill="#E8DE3F"/>
<path d="M278.073 174.251L278.072 151.348L266.621 162.799L278.073 174.251Z" fill="#CBDD43"/>
<path d="M289.524 185.702V162.8L278.073 174.25L289.524 185.702Z" fill="#E8DE3F"/>
<path d="M163.081 191.843L125.879 154.641V229.218L163.081 191.843Z" fill="#C42F73"/>
<path d="M206.662 116.162L194.72 128.103L194.768 113.815L206.671 101.911L206.662 116.162Z" fill="white"/>
<path d="M206.661 138.024L194.72 149.964L194.766 135.676L206.671 123.772L206.661 138.024Z" fill="white"/>
<path d="M206.661 159.885L194.72 171.825L194.766 157.537L206.671 145.634L206.661 159.885Z" fill="white"/>
<path d="M139.682 261.923L139.681 257.478L119.635 237.432L119.638 241.879L139.682 261.923Z" fill="white"/>
<path d="M119.638 226.156L119.637 230.602L139.682 250.648V246.203L119.638 226.156Z" fill="white"/>
<path d="M119.638 185.502L139.682 205.547L139.684 201.102L119.638 181.061V185.502Z" fill="white"/>
<path d="M119.636 214.881L119.637 219.327L139.682 239.373V234.928L119.636 214.881Z" fill="white"/>
<path d="M119.638 192.331V196.776L139.684 216.822L139.682 212.376L119.638 192.331Z" fill="white"/>
<path d="M119.638 203.607L119.637 208.051L139.682 228.098L139.684 223.652L119.638 203.607Z" fill="white"/>
<path d="M254.625 279.214L254.614 276.386L267.313 263.689L267.324 266.515L254.625 279.214Z" fill="white"/>
<path d="M267.282 256.518L267.293 259.345L254.596 272.043L254.585 269.215L267.282 256.518Z" fill="white"/>
<path d="M267.177 230.659L254.479 243.357L254.467 240.529L267.166 227.836L267.177 230.659Z" fill="white"/>
<path d="M267.253 249.346L267.265 252.173L254.568 264.871L254.555 262.044L267.253 249.346Z" fill="white"/>
<path d="M267.195 235.004L267.206 237.831L254.508 250.528L254.498 247.701L267.195 235.004Z" fill="white"/>
<path d="M267.224 242.174L267.236 245.002L254.539 257.7L254.526 254.873L267.224 242.174Z" fill="white"/>
</svg>
