<svg width="101" height="101" viewBox="0 0 101 101" fill="none" xmlns="http://www.w3.org/2000/svg">
<path fill-rule="evenodd" clip-rule="evenodd" d="M50.5 95.738C75.4843 95.738 95.7381 75.4843 95.7381 50.4999C95.7381 25.5156 75.4843 5.26184 50.5 5.26184C25.5157 5.26184 5.26193 25.5156 5.26193 50.4999C5.26193 75.4843 25.5157 95.738 50.5 95.738Z" stroke="white" stroke-width="2"/>
<path fill-rule="evenodd" clip-rule="evenodd" d="M45.3917 65.22V38.0251L65.3915 51.6225L45.3917 65.22ZM69.9909 50.0143L44.5247 32.7318C43.7333 32.1521 41.6218 32.1521 41.4524 34.34V68.9051C41.6401 71.0932 43.7894 71.1306 44.5247 70.5133L69.9909 53.2308C70.6509 52.8381 71.5556 51.2299 69.9909 50.0143Z" fill="white"/>
<rect x="3.00003" y="2.99994" width="95" height="95" rx="47.5" stroke="white" stroke-width="5"/>
</svg>
