<svg width="382" height="196" viewBox="0 0 382 196" fill="none" xmlns="http://www.w3.org/2000/svg">
<path d="M47.7573 60.1666L0.636353 60.0975L0.707804 13.4483L143.688 13.6557L143.623 60.3079L96.7387 60.2425L96.5471 185.967L47.5713 185.894L47.7573 60.1666Z" fill="black"/>
<path d="M314.195 13.9135C337.06 13.9468 353.849 19.8021 364.787 31.7113C375.738 43.3893 381.074 58.0959 381.049 75.5887C381.023 93.0794 375.405 107.535 363.964 118.473C352.75 129.426 335.012 134.996 310.752 134.961L291.158 134.936L291.083 186.252L242.572 186.183L242.831 13.805L314.195 13.9135ZM313.157 91.5767C324.582 91.5935 331.127 84.3741 331.141 75.0524C331.152 65.4866 323.927 58.2425 313.664 58.2282L291.271 58.1978L291.222 91.5484L313.157 91.5767Z" fill="black"/>
<path d="M143.826 186.93C119.788 175.717 103.085 157.25 93.8144 131.774C84.5404 106.292 85.4654 81.4174 96.7564 57.6224C107.961 33.5854 126.667 16.8024 153.096 7.17943C179.533 -2.44357 204.65 -1.60756 228.686 9.60344C252.634 20.5784 269.332 39.0314 278.692 64.7554C287.968 90.2324 287.04 115.109 275.747 138.907C264.693 162.616 245.991 179.401 219.556 189.028C193.117 198.645 167.773 197.893 143.826 186.93ZM226.418 117.489C231.33 106.532 231.737 95.0534 227.167 83.2374C222.425 70.9424 214.739 62.4154 204.018 57.4154C193.295 52.4174 182.147 52.1574 170.956 56.2294C159.523 60.3914 151.231 67.9934 146.235 78.7134C141.241 89.4384 140.828 100.906 145.243 113.049C149.67 125.192 157.361 133.727 168.078 138.723C178.801 143.725 190.03 144.213 201.46 140.053C213.131 135.807 221.419 128.208 226.418 117.489Z" fill="black"/>
<path d="M258.831 97.0734C258.831 137.829 225.787 170.866 185.034 170.866C144.279 170.866 111.243 137.829 111.243 97.0734C111.243 56.3234 144.279 23.2804 185.034 23.2804C225.787 23.2804 258.831 56.3234 258.831 97.0734Z" fill="#3FA9F5"/>
<path d="M145.399 145.928C145.637 146.313 145.949 146.625 146.334 146.858C146.726 147.079 147.168 147.258 147.661 147.348C148.145 147.446 148.653 147.504 149.166 147.498C149.573 147.504 149.985 147.475 150.423 147.406C150.859 147.344 151.258 147.238 151.627 147.078C151.996 146.92 152.306 146.685 152.545 146.377C152.784 146.07 152.902 145.672 152.902 145.195C152.902 144.547 152.649 144.037 152.152 143.703C151.659 143.361 151.026 143.086 150.287 142.883C149.543 142.668 148.725 142.479 147.848 142.311C146.968 142.151 146.161 141.903 145.416 141.596C144.661 141.289 144.048 140.854 143.546 140.289C143.046 139.736 142.794 138.953 142.794 137.967C142.794 137.19 142.97 136.518 143.322 135.949C143.665 135.408 144.117 134.947 144.661 134.592C145.218 134.252 145.83 133.992 146.514 133.821C147.208 133.651 147.889 133.567 148.554 133.567C149.445 133.567 150.246 133.641 150.992 133.792C151.731 133.94 152.371 134.198 152.948 134.573C153.515 134.94 153.968 135.438 154.307 136.065C154.65 136.684 154.84 137.469 154.903 138.413L152.361 138.413C152.322 137.905 152.191 137.493 151.981 137.169C151.747 136.841 151.47 136.575 151.131 136.374C150.793 136.177 150.43 136.032 150.016 135.946C149.609 135.852 149.197 135.807 148.779 135.813C148.391 135.807 148.011 135.831 147.62 135.895C147.232 135.95 146.88 136.065 146.567 136.211C146.24 136.363 145.985 136.559 145.789 136.805C145.583 137.061 145.486 137.383 145.486 137.782C145.486 138.218 145.645 138.581 145.949 138.874C146.265 139.163 146.651 139.399 147.133 139.591C147.616 139.782 148.146 139.937 148.743 140.066C149.348 140.205 149.941 140.337 150.541 140.476C151.18 140.613 151.794 140.79 152.409 140.978C153.013 141.185 153.562 141.451 154.022 141.775C154.489 142.097 154.868 142.521 155.16 143.017C155.446 143.513 155.592 144.126 155.592 144.867C155.592 145.803 155.398 146.584 155.01 147.199C154.622 147.818 154.114 148.316 153.482 148.695C152.853 149.07 152.144 149.332 151.37 149.488C150.579 149.644 149.792 149.713 149.017 149.713C148.162 149.713 147.336 149.621 146.561 149.447C145.79 149.263 145.095 148.968 144.5 148.551C143.899 148.149 143.425 147.615 143.063 146.947C142.706 146.281 142.5 145.463 142.462 144.515L145.012 144.515C145.025 145.067 145.161 145.547 145.399 145.928Z" fill="white"/>
<path d="M160.973 133.922L160.973 136.168L157.89 136.168L157.89 145.773C157.89 146.068 157.92 146.3 157.963 146.48C158.017 146.66 158.113 146.806 158.251 146.898C158.393 146.996 158.575 147.064 158.83 147.099C159.08 147.122 159.411 147.14 159.801 147.14L160.98 147.14L160.973 149.38L159.026 149.38C158.371 149.38 157.808 149.329 157.339 149.241C156.872 149.157 156.484 148.993 156.206 148.755C155.914 148.509 155.7 148.179 155.562 147.734C155.412 147.295 155.353 146.718 155.353 146.002L155.353 136.168L152.722 136.168L152.722 133.922L155.353 133.922L155.353 129.285L157.889 129.285L157.889 133.922L160.973 133.922V133.922Z" fill="white"/>
<path d="M171.612 149.711C170.958 149.711 170.43 149.527 170.042 149.158C169.659 148.785 169.465 148.185 169.465 147.344C168.761 148.186 167.954 148.785 167.028 149.158C166.095 149.527 165.092 149.711 164.018 149.711C163.319 149.711 162.666 149.643 162.043 149.486C161.424 149.336 160.88 149.082 160.418 148.734C159.946 148.394 159.582 147.955 159.311 147.394C159.043 146.843 158.905 146.181 158.905 145.408C158.905 144.529 159.056 143.81 159.357 143.254C159.656 142.699 160.045 142.244 160.54 141.889C161.03 141.543 161.586 141.278 162.205 141.098C162.842 140.924 163.481 140.768 164.139 140.649C164.835 140.512 165.5 140.413 166.133 140.337C166.752 140.267 167.31 140.169 167.783 140.042C168.265 139.909 168.639 139.724 168.923 139.472C169.201 139.216 169.345 138.857 169.345 138.376C169.345 137.819 169.23 137.38 169.023 137.03C168.822 136.698 168.547 136.438 168.219 136.26C167.89 136.08 167.521 135.949 167.122 135.895C166.703 135.834 166.302 135.813 165.901 135.813C164.825 135.813 163.925 136.016 163.216 136.428C162.496 136.83 162.106 137.604 162.043 138.735L159.501 138.735C159.544 137.782 159.744 136.973 160.107 136.323C160.465 135.655 160.942 135.132 161.535 134.721C162.141 134.311 162.821 134.01 163.597 133.836C164.375 133.65 165.198 133.566 166.052 133.566C166.751 133.566 167.444 133.619 168.132 133.709C168.814 133.814 169.444 134.02 170.001 134.328C170.563 134.635 171.003 135.072 171.349 135.627C171.691 136.189 171.852 136.91 171.852 137.811L171.852 145.774C171.852 146.36 171.888 146.807 171.962 147.079C172.027 147.366 172.259 147.505 172.66 147.499C172.879 147.499 173.138 147.446 173.434 147.345L173.434 149.325C173.003 149.581 172.39 149.711 171.612 149.711ZM168.057 141.926C167.538 142.03 166.998 142.121 166.422 142.19C165.859 142.254 165.284 142.34 164.707 142.426C164.131 142.52 163.608 142.668 163.154 142.867C162.696 143.06 162.32 143.349 162.031 143.717C161.742 144.085 161.598 144.586 161.598 145.221C161.598 145.651 161.683 145.991 161.852 146.285C162.025 146.574 162.239 146.806 162.513 146.988C162.782 147.164 163.093 147.291 163.459 147.383C163.833 147.459 164.203 147.504 164.587 147.504C165.427 147.504 166.142 147.383 166.743 147.158C167.341 146.92 167.823 146.631 168.202 146.285C168.585 145.937 168.858 145.558 169.046 145.146C169.222 144.738 169.312 144.357 169.312 144.005L169.312 141.4C168.992 141.639 168.576 141.817 168.057 141.926Z" fill="white"/>
<path d="M175.832 133.922L175.832 137.19L175.891 137.19C176.403 135.766 177.092 135.333 177.862 134.792C178.732 134.167 180.196 133.907 181.571 133.946L181.571 136.26C180.56 136.26 179.683 136.391 178.97 136.672C178.245 136.957 177.673 137.367 177.237 137.904C176.804 138.435 176.479 139.093 176.285 139.861C176.082 140.623 175.98 141.507 175.98 142.507L175.98 149.38L173.436 149.38L173.436 133.921L175.832 133.921L175.832 133.922Z" fill="white"/>
<path d="M189.444 133.922L189.444 136.168L186.364 136.168L186.368 145.773C186.364 146.068 186.387 146.3 186.442 146.48C186.489 146.66 186.582 146.806 186.723 146.898C186.866 146.996 187.055 147.064 187.312 147.099C187.556 147.122 187.875 147.14 188.268 147.14L189.448 147.14L189.444 149.38L187.498 149.38C186.842 149.38 186.275 149.329 185.81 149.241C185.342 149.157 184.959 148.989 184.667 148.755C184.387 148.509 184.169 148.175 184.032 147.734C183.892 147.295 183.82 146.718 183.819 146.002L183.819 136.168L181.191 136.168L181.191 133.922L183.82 133.922L183.819 129.285L186.364 129.285L186.364 133.922L189.444 133.922V133.922Z" fill="white"/>
<path d="M199.341 149.381L199.341 146.926L199.285 146.926C198.746 147.887 198.056 148.586 197.218 149.03C196.384 149.487 195.391 149.706 194.262 149.712C193.24 149.712 192.395 149.581 191.717 149.308C191.041 149.031 190.489 148.66 190.074 148.16C189.654 147.662 189.351 147.066 189.187 146.379C189.017 145.693 188.935 144.93 188.935 144.094L188.935 133.924L191.478 133.924L191.478 144.385C191.474 145.346 191.76 146.104 192.311 146.662C192.873 147.223 193.637 147.5 194.612 147.5C195.39 147.5 196.058 147.379 196.637 147.143C197.198 146.901 197.679 146.565 198.055 146.127C198.427 145.688 198.713 145.172 198.903 144.578C199.097 144 199.195 143.351 199.198 142.656L199.198 133.924L201.733 133.924L201.733 149.381L199.341 149.381Z" fill="white"/>
<path d="M203.889 133.922L203.886 136.02L203.948 136.02C204.376 135.161 205.022 134.541 205.92 134.153C206.826 133.76 207.809 133.561 208.892 133.561C210.082 133.561 211.123 133.78 212.01 134.223C212.898 134.661 213.635 135.25 214.221 136.002C214.809 136.748 215.252 137.617 215.549 138.592C215.848 139.561 215.999 140.608 215.999 141.699C216.003 142.799 215.853 143.836 215.569 144.814C215.282 145.787 214.838 146.63 214.252 147.359C213.659 148.088 212.931 148.671 212.037 149.074C211.152 149.496 210.114 149.711 208.946 149.711C208.566 149.711 208.141 149.67 207.672 149.596C207.205 149.514 206.739 149.381 206.279 149.205C205.826 149.025 205.387 148.775 204.98 148.463C204.576 148.162 204.224 147.777 203.948 147.32L203.888 147.32L203.885 155.273L201.345 155.273L201.345 133.921L203.889 133.921L203.889 133.922ZM213.029 139.411C212.836 138.72 212.546 138.112 212.16 137.569C211.77 137.03 211.273 136.604 210.663 136.286C210.058 135.968 209.344 135.807 208.536 135.807C207.672 135.807 206.942 135.981 206.341 136.327C205.743 136.655 205.258 137.095 204.879 137.645C204.503 138.2 204.226 138.821 204.061 139.508C203.886 140.209 203.802 140.924 203.807 141.639C203.802 142.391 203.887 143.125 204.076 143.836C204.258 144.547 204.531 145.17 204.92 145.703C205.311 146.244 205.818 146.678 206.428 147.002C207.049 147.338 207.8 147.498 208.675 147.498C209.554 147.504 210.287 147.33 210.874 146.988C211.465 146.644 211.93 146.205 212.297 145.65C212.651 145.084 212.911 144.447 213.07 143.732C213.234 143.015 213.31 142.269 213.31 141.511C213.309 140.805 213.219 140.098 213.029 139.411Z" fill="white"/>
<path d="M217.585 145.928C217.819 146.313 218.136 146.625 218.53 146.858C218.905 147.079 219.347 147.251 219.838 147.348C220.326 147.446 220.829 147.504 221.346 147.504C221.753 147.504 222.167 147.475 222.607 147.406C223.045 147.344 223.451 147.238 223.814 147.078C224.18 146.92 224.491 146.685 224.728 146.377C224.97 146.07 225.088 145.672 225.088 145.195C225.088 144.547 224.841 144.037 224.341 143.703C223.84 143.361 223.214 143.086 222.474 142.883C221.723 142.668 220.907 142.473 220.033 142.311C219.163 142.151 218.343 141.903 217.602 141.596C216.847 141.289 216.226 140.854 215.727 140.289C215.23 139.736 214.981 138.953 214.981 137.967C214.981 137.19 215.151 136.518 215.51 135.949C215.855 135.408 216.306 134.947 216.847 134.592C217.397 134.252 218.014 133.992 218.701 133.821C219.389 133.651 220.073 133.567 220.756 133.567C221.626 133.567 222.433 133.641 223.171 133.792C223.911 133.94 224.563 134.198 225.132 134.573C225.696 134.94 226.152 135.438 226.493 136.065C226.829 136.684 227.031 137.469 227.091 138.413L224.544 138.413C224.505 137.905 224.38 137.493 224.161 137.169C223.94 136.841 223.663 136.575 223.319 136.374C222.988 136.177 222.612 136.032 222.204 135.946C221.791 135.852 221.38 135.813 220.965 135.813C220.588 135.813 220.199 135.831 219.814 135.895C219.421 135.95 219.07 136.065 218.749 136.211C218.433 136.363 218.168 136.559 217.973 136.805C217.768 137.061 217.673 137.383 217.673 137.782C217.678 138.218 217.824 138.581 218.137 138.874C218.444 139.163 218.841 139.399 219.318 139.587C219.792 139.775 220.342 139.937 220.932 140.066C221.534 140.205 222.13 140.337 222.723 140.476C223.364 140.613 223.988 140.79 224.592 140.978C225.201 141.185 225.74 141.451 226.203 141.775C226.682 142.097 227.053 142.521 227.344 143.017C227.633 143.513 227.777 144.126 227.779 144.867C227.777 145.803 227.591 146.584 227.199 147.199C226.811 147.81 226.302 148.316 225.672 148.695C225.039 149.07 224.34 149.332 223.558 149.488C222.758 149.644 221.985 149.713 221.206 149.713C220.35 149.713 219.527 149.621 218.75 149.447C217.974 149.263 217.282 148.968 216.688 148.551C216.094 148.149 215.607 147.615 215.249 146.947C214.898 146.281 214.693 145.463 214.655 144.515L217.194 144.515C217.211 145.067 217.348 145.547 217.585 145.928Z" fill="white"/>
<path d="M142.25 44.6594L157.541 44.6594L157.541 99.7104L146.205 99.7024L146.205 58.1144L138.704 58.1144L142.25 44.6594Z" fill="white"/>
<path d="M175.877 43.3114C180.022 43.3114 183.603 44.2744 186.594 46.2024C189.594 48.1164 191.92 51.0564 193.546 55.0144C195.184 58.9654 195.995 64.4694 195.998 71.5304C195.998 78.6534 195.175 84.2104 193.497 88.1714C191.848 92.1344 189.618 95.0604 186.811 96.9114C183.999 98.7724 180.457 99.7064 176.184 99.7064C171.91 99.7064 168.317 98.7684 165.408 96.9014C162.498 95.0164 160.223 92.1764 158.573 88.3524C156.935 84.5364 156.104 79.0984 156.104 72.0404C156.104 62.1864 157.709 55.0524 160.927 50.6104C164.508 45.7474 169.489 43.3114 175.877 43.3114Z" fill="white"/>
<path d="M211.422 43.3114C215.566 43.3114 219.13 44.2744 222.14 46.2024C225.131 48.1164 227.453 51.0564 229.082 55.0144C230.726 58.9654 231.542 64.4654 231.542 71.5304C231.542 78.6534 230.707 84.2104 229.044 88.1714C227.39 92.1344 225.154 95.0604 222.345 96.9114C219.538 98.7784 215.997 99.7064 211.725 99.7064C207.453 99.7064 203.856 98.7684 200.953 96.9014C198.038 95.0164 195.767 92.1764 194.116 88.3524C192.468 84.5364 191.643 79.0984 191.643 72.0404C191.643 62.1864 193.254 55.0524 196.477 50.6104C200.047 45.7474 205.035 43.3114 211.422 43.3114Z" fill="white"/>
<path d="M143.566 110.926C144.061 109.391 144.822 108.049 145.809 106.912C146.804 105.771 148.038 104.877 149.501 104.217C150.974 103.567 152.648 103.238 154.553 103.238C156.487 103.238 158.178 103.566 159.628 104.217C161.085 104.877 162.301 105.772 163.301 106.912C164.3 108.049 165.049 109.391 165.542 110.926C166.041 112.475 166.29 114.139 166.29 115.903C166.29 117.684 166.041 119.344 165.542 120.862C165.049 122.393 164.297 123.729 163.301 124.866C162.301 126.005 161.076 126.893 159.628 127.53C158.178 128.171 156.486 128.487 154.55 128.487C152.649 128.487 150.974 128.171 149.501 127.53C148.038 126.893 146.809 126.005 145.809 124.866C144.822 123.729 144.058 122.393 143.566 120.862C143.063 119.344 142.817 117.684 142.817 115.903C142.817 114.139 143.063 112.475 143.566 110.926ZM147.616 119.815C148 120.948 148.541 121.907 149.229 122.665C149.905 123.435 150.714 124.024 151.633 124.419C152.559 124.825 153.534 125.028 154.553 125.028C155.585 125.028 156.557 124.825 157.477 124.419C158.393 124.024 159.198 123.435 159.883 122.665C160.567 121.907 161.107 120.948 161.498 119.815C161.889 118.68 162.078 117.368 162.078 115.903C162.078 114.45 161.88 113.139 161.493 112.008C161.106 110.869 160.566 109.91 159.883 109.129C159.197 108.354 158.393 107.754 157.477 107.35C156.557 106.95 155.58 106.748 154.55 106.748C153.534 106.748 152.559 106.949 151.633 107.35C150.714 107.762 149.904 108.354 149.229 109.129C148.538 109.91 148 110.869 147.616 112.008C147.224 113.139 147.022 114.449 147.022 115.903C147.026 117.368 147.224 118.68 147.616 119.815Z" fill="white"/>
<path d="M169.201 103.805L169.201 107.078L169.286 107.078C169.939 105.732 170.974 104.762 172.381 104.154C173.777 103.543 175.321 103.238 177.004 103.238C178.878 103.238 180.506 103.584 181.89 104.271C183.281 104.959 184.434 105.882 185.354 107.046C186.276 108.222 186.961 109.567 187.423 111.095C187.9 112.622 188.138 114.247 188.138 115.956C188.138 117.671 187.908 119.288 187.453 120.819C187.001 122.352 186.309 123.68 185.403 124.817C184.477 125.95 183.323 126.852 181.938 127.508C180.551 128.156 178.933 128.479 177.094 128.479C176.508 128.479 175.842 128.422 175.107 128.307C174.376 128.174 173.655 127.969 172.937 127.694C172.222 127.411 171.539 127.024 170.903 126.553C170.262 126.059 169.725 125.465 169.286 124.754L169.201 124.754L169.196 135.18L165.22 135.18L165.22 103.803L169.201 103.803L169.201 103.805ZM183.481 112.376C183.179 111.31 182.727 110.351 182.127 109.505C181.517 108.667 180.735 107.993 179.782 107.493C178.842 106.999 177.72 106.749 176.438 106.749C175.106 106.749 173.967 107.011 173.03 107.534C172.093 108.077 171.332 108.772 170.737 109.622C170.142 110.481 169.721 111.454 169.448 112.538C169.188 113.636 169.055 114.739 169.055 115.862C169.055 117.05 169.201 118.2 169.475 119.296C169.755 120.405 170.2 121.376 170.807 122.228C171.411 123.064 172.199 123.74 173.174 124.259C174.131 124.769 175.301 125.029 176.677 125.029C178.051 125.029 179.19 124.763 180.112 124.232C181.037 123.711 181.776 123.002 182.337 122.121C182.896 121.262 183.303 120.256 183.55 119.129C183.801 118.016 183.924 116.865 183.924 115.676C183.923 114.547 183.772 113.456 183.481 112.376Z" fill="white"/>
<path d="M204.946 126.438C203.135 127.799 200.862 128.487 198.122 128.481C196.19 128.487 194.517 128.176 193.092 127.551C191.675 126.94 190.483 126.053 189.518 124.928C188.551 123.811 187.827 122.473 187.336 120.916C186.866 119.354 186.589 117.656 186.528 115.812C186.528 113.976 186.802 112.3 187.366 110.763C187.929 109.238 188.711 107.915 189.73 106.788C190.739 105.667 191.942 104.796 193.327 104.173C194.713 103.542 196.239 103.237 197.884 103.237C200.038 103.237 201.816 103.68 203.243 104.565C204.653 105.46 205.794 106.585 206.651 107.965C207.507 109.336 208.099 110.83 208.432 112.444C208.755 114.073 208.892 115.61 208.83 117.077L190.734 117.077C190.701 118.141 190.826 119.138 191.11 120.093C191.386 121.046 191.837 121.882 192.458 122.618C193.08 123.358 193.882 123.934 194.85 124.374C195.815 124.813 196.955 125.026 198.257 125.02C199.944 125.026 201.322 124.637 202.395 123.86C203.478 123.073 204.186 121.891 204.526 120.301L208.454 120.301C207.921 123.02 206.76 125.059 204.946 126.438ZM203.993 110.905C203.638 110.069 203.144 109.344 202.535 108.731C201.932 108.124 201.215 107.651 200.39 107.288C199.555 106.931 198.647 106.749 197.651 106.749C196.626 106.749 195.694 106.931 194.867 107.288C194.047 107.651 193.327 108.138 192.748 108.753C192.151 109.378 191.686 110.107 191.341 110.933C190.996 111.759 190.798 112.63 190.736 113.578L204.618 113.578C204.55 112.629 204.345 111.752 203.993 110.905Z" fill="white"/>
<path d="M211.155 103.805L211.155 107.635L211.251 107.635C212.9 104.705 215.512 103.239 219.108 103.239C220.696 103.239 222.011 103.458 223.077 103.901C224.135 104.329 224.994 104.944 225.652 105.715C226.303 106.498 226.759 107.42 227.03 108.5C227.296 109.574 227.424 110.764 227.43 112.068L227.423 127.968L223.451 127.97L223.451 111.607C223.451 110.111 223.013 108.927 222.141 108.062C221.271 107.175 220.072 106.748 218.539 106.748C217.324 106.748 216.267 106.941 215.386 107.305C214.498 107.682 213.757 108.211 213.164 108.891C212.57 109.586 212.127 110.383 211.832 111.309C211.53 112.225 211.389 113.225 211.389 114.323L211.387 127.969L207.407 127.971L207.412 103.805L211.155 103.805V103.805Z" fill="white"/>
<path d="M187.525 13.8888C187.076 13.3988 186.865 12.8188 186.894 12.1488C186.922 11.4768 187.181 10.9168 187.671 10.4668C188.178 10.0018 188.758 9.79083 189.412 9.81883C190.083 9.84783 190.642 10.1078 191.092 10.6138C191.558 11.1038 191.769 11.6838 191.739 12.3558C191.711 13.0258 191.452 13.5858 190.945 14.0358C190.456 14.4848 189.876 14.6938 189.205 14.6668C188.551 14.6368 187.991 14.3788 187.525 13.8888Z" fill="#3FA9F5"/>
<path d="M202.046 19.5388L199.904 14.2248L198.284 13.9418L197.447 18.7388L195.545 18.4068L197.677 6.18384L201.993 6.93584C203.267 7.15884 204.18 7.69184 204.73 8.53784C205.282 9.38584 205.476 10.3208 205.297 11.3468C205.018 12.9518 203.807 14.2238 201.953 14.3958L204.344 19.9428L202.046 19.5388ZM199.265 8.31784L198.593 12.1718L200.71 12.5408C202.248 12.8088 203.14 12.0958 203.332 10.9858C203.52 9.91184 202.936 8.95684 201.68 8.73784L199.265 8.31784Z" fill="white"/>
<path d="M212.093 22.2968L211.85 19.0308L207.476 17.7108L205.467 20.2988L203.473 19.6968L211.786 9.23782L212.993 9.60082L214.087 22.8978L212.093 22.2968ZM211.493 12.3608L208.585 16.1848L211.802 17.1558L211.493 12.3608Z" fill="white"/>
<path d="M226.779 15.0638L228.521 15.8568L223.379 27.1558L222.339 26.6808L219.359 16.0788L215.873 23.7368L214.13 22.9438L219.272 11.6448L220.19 12.0628L223.266 22.7838L226.779 15.0638Z" fill="white"/>
<path d="M231.063 31.9388L230.424 25.3138L227.986 26.1028L226.227 28.9038L224.592 27.8788L231.189 17.3688L232.824 18.3938L229.387 23.8708L237.374 21.2518L239.337 22.4838L232.213 24.8318L233.081 33.2068L231.063 31.9388Z" fill="white"/>
<path d="M240.3 23.3568L241.846 24.5148L234.404 34.4508L232.858 33.2928L240.3 23.3568Z" fill="white"/>
<path d="M250.138 31.6168L251.556 32.9038L243.211 42.0928L242.365 41.3248L242.762 30.3188L237.105 36.5488L235.687 35.2618L244.032 26.0708L244.778 26.7488L244.435 37.8948L250.138 31.6168Z" fill="white"/>
<path d="M246.068 42.8458C246.234 41.1448 247.03 39.7068 248.457 38.5338C249.897 37.3498 251.472 36.8578 253.206 37.0628C254.952 37.2578 256.39 38.0528 257.542 39.4558C258.854 41.0498 259.406 43.0968 259.096 44.8078L257.242 44.6168C257.456 43.1578 257.071 41.8438 256.1 40.6638C255.279 39.6658 254.259 39.1128 253.054 38.9938C251.848 38.8768 250.728 39.2318 249.716 40.0638C248.717 40.8858 248.141 41.9038 248.024 43.1088C247.907 44.3138 248.254 45.3978 249.065 46.3838C249.971 47.4858 251.347 48.1808 252.71 48.2788L254.422 46.8708L251.937 43.8498L253.287 42.7408L256.913 47.1488L253.152 50.2428C250.847 50.1378 248.991 49.2288 247.594 47.5298C246.418 46.1018 245.915 44.5368 246.068 42.8458Z" fill="white"/>
<path d="M256.831 53.1638C256.99 52.5188 257.357 52.0228 257.933 51.6778C258.508 51.3298 259.119 51.2368 259.763 51.3968C260.431 51.5628 260.927 51.9298 261.265 52.4908C261.612 53.0648 261.705 53.6768 261.532 54.3288C261.381 54.9888 261.013 55.4848 260.438 55.8308C259.863 56.1788 259.253 56.2718 258.599 56.0988C257.954 55.9388 257.458 55.5718 257.112 54.9948C256.774 54.4338 256.68 53.8238 256.831 53.1638Z" fill="#3FA9F5"/>
<path d="M259.921 63.4938L262.015 68.1678L260.391 68.8948L257.178 61.7268L258.649 61.0668L264.092 62.9498L265.426 63.3838C266.02 63.5598 267.038 63.6548 267.666 63.3718C268.707 62.9048 269.05 61.7408 268.576 60.6828C268.178 59.7958 267.35 59.0988 266.102 58.5738L266.926 57.0448C268.53 57.6698 269.638 58.6618 270.249 60.0268C270.716 61.0678 270.778 62.0698 270.445 63.0088C270.119 63.9658 269.443 64.6728 268.432 65.1258C267.406 65.5868 265.995 65.5188 264.217 64.9168L259.921 63.4938Z" fill="white"/>
<path d="M261.772 73.6878C261.511 72.8718 261.462 72.1118 261.615 71.3758C261.926 69.9208 262.958 68.8488 264.248 68.0318C266.894 66.4988 270.603 65.8578 272.777 67.8068C273.329 68.3188 273.729 68.9648 273.99 69.7818C274.251 70.5988 274.3 71.3578 274.147 72.0938C273.847 73.5818 272.809 74.6348 271.509 75.4218C270.22 76.2378 268.588 76.7598 267.064 76.8418C265.549 76.9568 264.092 76.6988 262.985 75.6598C262.434 75.1498 262.033 74.5018 261.772 73.6878ZM265.389 74.8568C266.353 75.0598 267.486 74.9618 268.781 74.5478C270.06 74.1378 271.039 73.5618 271.706 72.8368C272.374 72.1118 272.564 71.2758 272.263 70.3328C271.962 69.3898 271.322 68.8168 270.358 68.6138C269.394 68.4128 268.267 68.5258 266.988 68.9338C264.563 69.6738 262.904 71.1568 263.501 73.1328C263.801 74.0778 264.425 74.6538 265.389 74.8568Z" fill="white"/>
<path d="M265.677 80.5898L266.692 85.6108L264.947 85.9628L263.39 78.2578L264.97 77.9398L269.868 80.9768L271.075 81.6918C271.616 81.9948 272.588 82.3128 273.263 82.1758C274.382 81.9488 274.973 80.8868 274.743 79.7518C274.55 78.7968 273.896 77.9358 272.795 77.1468L273.935 75.8358C275.364 76.7988 276.226 78.0118 276.522 79.4788C276.749 80.5978 276.588 81.5898 276.057 82.4338C275.528 83.2948 274.712 83.8358 273.625 84.0568C272.521 84.2798 271.161 83.9028 269.558 82.9238L265.677 80.5898Z" fill="white"/>
<path d="M265.237 90.9468C265.162 90.0928 265.282 89.3418 265.592 88.6558C266.215 87.3038 267.458 86.4878 268.896 85.9738C271.816 85.0618 275.574 85.2548 277.265 87.6338C277.691 88.2528 277.939 88.9738 278.013 89.8268C278.088 90.6788 277.969 91.4308 277.658 92.1158C277.038 93.5008 275.794 94.3018 274.353 94.7798C272.915 95.2938 271.208 95.4438 269.704 95.1878C268.201 94.9648 266.837 94.3948 265.985 93.1368C265.56 92.5198 265.312 91.7988 265.237 90.9468ZM268.507 92.8848C269.403 93.2948 270.528 93.4488 271.883 93.3298C273.221 93.2128 274.302 92.8648 275.112 92.3068C275.923 91.7458 276.294 90.9728 276.207 89.9868C276.12 88.9988 275.621 88.3008 274.726 87.8908C273.831 87.4808 272.706 87.3438 271.369 87.4608C268.841 87.6488 266.896 88.7288 267.043 90.7888C267.129 91.7748 267.612 92.4748 268.507 92.8848Z" fill="white"/>
<path d="M269.757 100.029C270.247 99.5798 270.827 99.3688 271.498 99.3978C272.169 99.4268 272.729 99.6868 273.178 100.177C273.644 100.685 273.854 101.265 273.824 101.919C273.795 102.589 273.535 103.149 273.028 103.599C272.538 104.064 271.957 104.275 271.287 104.245C270.616 104.216 270.056 103.956 269.607 103.448C269.159 102.958 268.949 102.378 268.978 101.708C269.007 101.055 269.267 100.494 269.757 100.029Z" fill="#3FA9F5"/>
<path d="M264.103 114.527L269.418 112.384L269.7 110.765L264.904 109.927L265.235 108.025L277.459 110.158L276.706 114.474C276.484 115.747 275.95 116.66 275.104 117.21C274.257 117.763 273.321 117.956 272.295 117.778C270.691 117.499 269.418 116.288 269.247 114.434L263.7 116.825L264.103 114.527ZM275.325 111.746L271.471 111.074L271.102 113.191C270.833 114.728 271.547 115.621 272.656 115.812C273.731 116 274.685 115.417 274.904 114.16L275.325 111.746Z" fill="white"/>
<path d="M261.342 124.566L264.606 124.326L265.926 119.955L263.341 117.947L263.943 115.955L274.39 124.266L274.027 125.471L260.741 126.561L261.342 124.566ZM271.271 123.971L267.45 121.065L266.479 124.278L271.271 123.971Z" fill="white"/>
<path d="M268.549 139.279L267.756 141.019L256.468 135.876L256.942 134.839L267.537 131.862L259.885 128.378L260.679 126.636L271.966 131.779L271.549 132.695L260.836 135.763L268.549 139.279Z" fill="white"/>
<path d="M251.678 143.568L258.304 142.929L257.515 140.49L254.713 138.732L255.739 137.097L266.249 143.693L265.223 145.328L259.747 141.892L262.366 149.878L261.134 151.841L258.786 144.718L250.41 145.585L251.678 143.568Z" fill="white"/>
<path d="M260.259 152.775L259.101 154.32L249.178 146.877L250.336 145.332L260.259 152.775Z" fill="white"/>
<path d="M252.012 162.613L250.725 164.031L241.535 155.685L242.303 154.839L253.31 155.237L247.08 149.579L248.367 148.161L257.557 156.507L256.879 157.253L245.733 156.909L252.012 162.613Z" fill="white"/>
<path d="M240.759 158.561C242.46 158.727 243.898 159.522 245.071 160.95C246.255 162.389 246.746 163.964 246.541 165.698C246.347 167.444 245.551 168.882 244.149 170.034C242.554 171.346 240.507 171.899 238.796 171.589L238.988 169.734C240.447 169.949 241.76 169.564 242.941 168.593C243.939 167.771 244.492 166.751 244.61 165.546C244.727 164.341 244.372 163.22 243.54 162.208C242.719 161.21 241.701 160.634 240.495 160.517C239.29 160.4 238.206 160.747 237.221 161.558C236.118 162.464 235.423 163.839 235.326 165.203L236.734 166.914L239.755 164.43L240.864 165.78L236.454 169.405L233.361 165.645C233.466 163.34 234.375 161.483 236.074 160.086C237.503 158.91 239.068 158.408 240.759 158.561Z" fill="white"/>
<path d="M230.456 169.303C231.102 169.463 231.598 169.83 231.944 170.407C232.29 170.984 232.384 171.593 232.224 172.239C232.058 172.907 231.69 173.403 231.128 173.741C230.553 174.089 229.942 174.18 229.288 174.007C228.628 173.857 228.132 173.487 227.785 172.911C227.438 172.337 227.346 171.725 227.519 171.071C227.679 170.426 228.047 169.93 228.623 169.583C229.186 169.244 229.796 169.15 230.456 169.303Z" fill="#3FA9F5"/>
<path d="M220.122 172.389L215.445 174.483L214.716 172.858L221.894 169.645L222.553 171.116L220.665 176.563L220.232 177.899C220.056 178.493 219.96 179.512 220.242 180.141C220.709 181.184 221.875 181.526 222.932 181.053C223.822 180.655 224.519 179.826 225.046 178.578L226.575 179.402C225.95 181.007 224.955 182.117 223.59 182.726C222.547 183.193 221.544 183.255 220.604 182.923C219.648 182.597 218.939 181.919 218.486 180.907C218.026 179.88 218.094 178.468 218.697 176.688L220.122 172.389Z" fill="white"/>
<path d="M209.932 174.236C210.747 173.974 211.508 173.925 212.244 174.078C213.7 174.389 214.771 175.422 215.589 176.711C217.122 179.357 217.762 183.066 215.813 185.24C215.301 185.793 214.655 186.193 213.838 186.453C213.023 186.715 212.263 186.764 211.526 186.611C210.038 186.31 208.984 185.273 208.198 183.972C207.381 182.683 206.859 181.052 206.777 179.527C206.663 178.013 206.92 176.556 207.959 175.449C208.469 174.898 209.117 174.496 209.932 174.236ZM208.762 177.854C208.559 178.817 208.657 179.95 209.071 181.245C209.48 182.524 210.057 183.503 210.782 184.171C211.506 184.839 212.343 185.028 213.286 184.728C214.229 184.428 214.801 183.787 215.004 182.822C215.206 181.859 215.093 180.732 214.684 179.453C213.945 177.027 212.462 175.369 210.486 175.965C209.54 176.266 208.965 176.889 208.762 177.854Z" fill="white"/>
<path d="M203.028 178.135L198.007 179.145L197.656 177.399L205.361 175.85L205.678 177.43L202.637 182.325L201.92 183.53C201.618 184.071 201.299 185.044 201.435 185.718C201.661 186.839 202.722 187.431 203.858 187.202C204.813 187.009 205.675 186.356 206.464 185.255L207.773 186.398C206.809 187.824 205.595 188.685 204.129 188.98C203.01 189.205 202.019 189.044 201.175 188.513C200.315 187.984 199.774 187.167 199.555 186.079C199.333 184.975 199.71 183.616 200.691 182.015L203.028 178.135Z" fill="white"/>
<path d="M192.671 177.693C193.525 177.617 194.276 177.738 194.961 178.048C196.313 178.671 197.13 179.913 197.643 181.351C198.556 184.271 198.363 188.029 195.984 189.72C195.364 190.146 194.644 190.394 193.791 190.468C192.938 190.544 192.187 190.425 191.502 190.113C190.116 189.494 189.316 188.25 188.836 186.808C188.323 185.37 188.174 183.663 188.43 182.16C188.652 180.656 189.223 179.293 190.48 178.441C191.099 178.016 191.819 177.768 192.671 177.693ZM190.734 180.963C190.324 181.859 190.17 182.984 190.288 184.34C190.405 185.678 190.753 186.758 191.312 187.569C191.873 188.38 192.646 188.751 193.632 188.665C194.619 188.577 195.317 188.079 195.727 187.183C196.138 186.288 196.275 185.163 196.158 183.826C195.97 181.299 194.89 179.353 192.83 179.5C191.843 179.586 191.144 180.068 190.734 180.963Z" fill="white"/>
<path d="M183.573 182.209C184.022 182.699 184.232 183.279 184.203 183.951C184.174 184.621 183.914 185.181 183.424 185.631C182.917 186.096 182.336 186.307 181.683 186.277C181.012 186.248 180.452 185.988 180.003 185.48C179.537 184.99 179.327 184.41 179.357 183.74C179.386 183.068 179.646 182.508 180.153 182.06C180.643 181.611 181.223 181.402 181.894 181.431C182.547 181.459 183.107 181.719 183.573 182.209Z" fill="#3FA9F5"/>
<path d="M169.09 176.543L171.227 181.861L172.848 182.146L173.689 177.349L175.591 177.683L173.448 189.906L169.131 189.15C167.858 188.925 166.945 188.39 166.395 187.545C165.844 186.697 165.651 185.76 165.831 184.734C166.112 183.13 167.324 181.859 169.178 181.689L166.792 176.14L169.09 176.543ZM171.863 187.77L172.538 183.916L170.421 183.545C168.883 183.275 167.99 183.988 167.797 185.098C167.609 186.172 168.191 187.127 169.448 187.348L171.863 187.77Z" fill="white"/>
<path d="M159.053 173.779L159.291 177.045L163.661 178.369L165.672 175.785L167.664 176.389L159.344 186.832L158.139 186.467L157.06 173.176L159.053 173.779ZM159.64 183.711L162.551 179.891L159.338 178.918L159.64 183.711Z" fill="white"/>
<path d="M144.331 180.982L142.59 180.187L147.743 168.898L148.781 169.373L151.749 179.975L155.242 172.323L156.983 173.118L151.83 184.407L150.914 183.987L147.852 173.268L144.331 180.982Z" fill="white"/>
<path d="M140.055 164.107L140.689 170.736L143.129 169.949L144.891 167.148L146.526 168.175L139.919 178.685L138.283 177.658L141.725 172.181L133.732 174.796L131.77 173.562L138.899 171.218L138.037 162.837L140.055 164.107Z" fill="white"/>
<path d="M130.838 172.693L129.294 171.533L136.747 161.611L138.292 162.769L130.838 172.693Z" fill="white"/>
<path d="M121.021 164.434L119.605 163.147L127.949 153.967L128.794 154.735L128.392 165.735L134.048 159.512L135.464 160.799L127.12 169.979L126.375 169.301L126.724 158.16L121.021 164.434Z" fill="white"/>
<path d="M125.069 153.186C124.901 154.887 124.102 156.325 122.674 157.497C121.233 158.679 119.656 159.167 117.923 158.96C116.176 158.765 114.739 157.966 113.589 156.564C112.279 154.966 111.73 152.919 112.042 151.209L113.896 151.404C113.68 152.863 114.064 154.177 115.033 155.359C115.853 156.359 116.873 156.912 118.078 157.031C119.284 157.15 120.404 156.797 121.418 155.965C122.418 155.147 122.995 154.129 123.114 152.924C123.233 151.717 122.886 150.633 122.077 149.647C121.172 148.543 119.797 147.846 118.434 147.749L116.72 149.153L119.201 152.18L117.85 153.287L114.229 148.871L117.995 145.783C120.3 145.89 122.154 146.803 123.55 148.504C124.722 149.93 125.224 151.494 125.069 153.186Z" fill="white"/>
<path d="M114.327 142.883C114.167 143.528 113.799 144.024 113.223 144.371C112.648 144.717 112.037 144.81 111.392 144.65C110.723 144.484 110.227 144.117 109.889 143.554C109.542 142.98 109.449 142.368 109.623 141.714C109.774 141.054 110.143 140.558 110.719 140.212C111.294 139.864 111.905 139.773 112.559 139.946C113.205 140.106 113.701 140.473 114.047 141.05C114.385 141.611 114.479 142.223 114.327 142.883Z" fill="#3FA9F5"/>
<path d="M111.247 132.545L109.157 127.867L110.783 127.14L113.989 134.318L112.517 134.976L107.073 133.085L105.739 132.649C105.145 132.473 104.127 132.378 103.498 132.657C102.455 133.124 102.111 134.29 102.584 135.346C102.981 136.237 103.809 136.934 105.056 137.461L104.231 138.99C102.627 138.363 101.519 137.367 100.91 136.002C100.444 134.961 100.383 133.957 100.717 133.018C101.044 132.061 101.722 131.354 102.734 130.903C103.761 130.444 105.172 130.512 106.95 131.116L111.247 132.545Z" fill="white"/>
<path d="M109.394 122.322C109.654 123.138 109.703 123.9 109.549 124.636C109.237 126.091 108.202 127.161 106.911 127.978C104.261 129.509 100.549 130.146 98.3759 128.193C97.8249 127.681 97.4249 127.033 97.1649 126.216C96.9049 125.399 96.8559 124.64 97.0099 123.904C97.3119 122.414 98.3519 121.361 99.6529 120.576C100.945 119.76 102.578 119.24 104.103 119.16C105.619 119.047 107.076 119.306 108.183 120.346C108.734 120.857 109.134 121.506 109.394 122.322ZM105.776 121.148C104.812 120.943 103.679 121.039 102.382 121.453C101.102 121.859 100.122 122.437 99.4529 123.16C98.7839 123.885 98.5929 124.722 98.8929 125.666C99.1939 126.611 99.8339 127.182 100.798 127.387C101.762 127.592 102.89 127.479 104.17 127.071C106.598 126.335 108.259 124.852 107.664 122.874C107.365 121.93 106.741 121.352 105.776 121.148Z" fill="white"/>
<path d="M105.499 115.418L104.494 110.397L106.239 110.047L107.782 117.752L106.201 118.068L101.31 115.023L100.105 114.306C99.5649 114.003 98.5929 113.683 97.9179 113.818C96.7979 114.043 96.2059 115.103 96.4329 116.24C96.6239 117.195 97.2769 118.056 98.3759 118.847L97.2339 120.154C95.8069 119.189 94.9479 117.974 94.6549 116.509C94.4299 115.39 94.5919 114.398 95.1249 113.556C95.6549 112.697 96.4719 112.156 97.5589 111.939C98.6619 111.718 100.022 112.095 101.622 113.078L105.499 115.418Z" fill="white"/>
<path d="M105.948 105.059C106.022 105.913 105.902 106.664 105.591 107.348C104.967 108.7 103.723 109.514 102.285 110.028C99.364 110.938 95.6069 110.741 93.9179 108.36C93.4929 107.739 93.2459 107.02 93.1719 106.167C93.0979 105.314 93.2179 104.562 93.5289 103.878C94.1499 102.493 95.3949 101.694 96.8369 101.216C98.2749 100.704 99.982 100.556 101.486 100.814C102.988 101.037 104.352 101.609 105.202 102.867C105.626 103.486 105.874 104.205 105.948 105.059ZM102.679 103.117C101.784 102.707 100.658 102.551 99.304 102.67C97.966 102.785 96.8839 103.131 96.0739 103.691C95.2629 104.25 94.8919 105.023 94.9769 106.009C95.0629 106.995 95.561 107.695 96.456 108.105C97.351 108.515 98.4749 108.654 99.8119 108.539C102.34 108.353 104.286 107.275 104.141 105.215C104.056 104.229 103.575 103.529 102.679 103.117Z" fill="white"/>
<path d="M101.437 95.9878C100.947 96.4368 100.367 96.6458 99.6959 96.6168C99.0249 96.5858 98.4659 96.3258 98.0159 95.8358C97.5519 95.3278 97.3419 94.7478 97.3709 94.0938C97.4009 93.4218 97.6609 92.8638 98.1689 92.4138C98.6599 91.9488 99.2399 91.7398 99.9109 91.7688C100.582 91.7998 101.141 92.0598 101.59 92.5678C102.038 93.0578 102.247 93.6378 102.218 94.3078C102.189 94.9628 101.928 95.5228 101.437 95.9878Z" fill="#3FA9F5"/>
<path d="M107.105 81.5098L101.787 83.6468L101.503 85.2678L106.3 86.1098L105.966 88.0118L93.7419 85.8688L94.4989 81.5508C94.7229 80.2778 95.258 79.3648 96.104 78.8148C96.95 78.2648 97.8879 78.0708 98.9139 78.2508C100.518 78.5318 101.789 79.7448 101.959 81.5988L107.509 79.2118L107.105 81.5098ZM95.8779 84.2808L99.7319 84.9568L100.103 82.8398C100.373 81.3028 99.6599 80.4098 98.5509 80.2168C97.4769 80.0278 96.5219 80.6098 96.3009 81.8668L95.8779 84.2808Z" fill="white"/>
<path d="M109.874 71.4728L106.609 71.7108L105.285 76.0798L107.869 78.0918L107.265 80.0838L96.8219 71.7638L97.1869 70.5588L110.478 69.4788L109.874 71.4728ZM99.9439 72.0588L103.763 74.9708L104.737 71.7578L99.9439 72.0588Z" fill="white"/>
<path d="M102.675 56.7518L103.47 55.0118L114.758 60.1638L114.283 61.2028L103.681 64.1698L111.333 67.6638L110.538 69.4038L99.25 64.2518L99.669 63.3358L110.388 60.2738L102.675 56.7518Z" fill="white"/>
<path d="M119.555 52.4788L112.926 53.1118L113.713 55.5528L116.515 57.3148L115.487 58.9498L104.977 52.3428L106.005 50.7058L111.481 54.1488L108.867 46.1548L110.101 44.1938L112.445 51.3228L120.825 50.4598L119.555 52.4788Z" fill="white"/>
<path d="M110.973 43.2638L112.133 41.7208L122.056 49.1738L120.897 50.7168L110.973 43.2638Z" fill="white"/>
<path d="M119.261 33.4098L120.55 31.9938L129.729 40.3488L128.959 41.1948L117.954 40.7848L124.177 46.4488L122.888 47.8648L113.709 39.5098L114.388 38.7638L125.534 39.1208L119.261 33.4098Z" fill="white"/>
<path d="M130.485 37.4978C128.783 37.3298 127.346 36.5308 126.175 35.1028C124.992 33.6618 124.504 32.0848 124.711 30.3508C124.907 28.6048 125.705 27.1668 127.107 26.0168C128.705 24.7078 130.752 24.1578 132.462 24.4698L132.268 26.3238C130.809 26.1088 129.495 26.4918 128.313 27.4608C127.313 28.2808 126.759 29.3008 126.64 30.5058C126.521 31.7128 126.875 32.8318 127.706 33.8458C128.525 34.8458 129.543 35.4238 130.748 35.5428C131.954 35.6618 133.038 35.3138 134.024 34.5058C135.128 33.5998 135.825 32.2248 135.923 30.8628L134.518 29.1478L131.492 31.6298L130.385 30.2778L134.8 26.6568L137.889 30.4228C137.781 32.7278 136.869 34.5828 135.168 35.9778C133.741 37.1498 132.176 37.6518 130.485 37.4978Z" fill="white"/>
<path d="M140.795 26.7618C140.149 26.6018 139.653 26.2348 139.308 25.6578C138.963 25.0808 138.87 24.4718 139.03 23.8278C139.197 23.1578 139.565 22.6638 140.126 22.3258C140.702 21.9798 141.313 21.8868 141.966 22.0618C142.625 22.2138 143.121 22.5818 143.467 23.1578C143.814 23.7338 143.906 24.3438 143.731 24.9978C143.571 25.6428 143.203 26.1388 142.627 26.4838C142.065 26.8218 141.454 26.9138 140.795 26.7618Z" fill="#3FA9F5"/>
<path d="M151.13 23.6858L155.808 21.5958L156.535 23.2208L149.357 26.4278L148.7 24.9548L150.591 19.5118L151.026 18.1778C151.202 17.5838 151.298 16.5648 151.018 15.9358C150.552 14.8928 149.386 14.5488 148.329 15.0218C147.439 15.4198 146.742 16.2468 146.214 17.4948L144.684 16.6678C145.311 15.0638 146.306 13.9568 147.671 13.3478C148.713 12.8808 149.716 12.8208 150.656 13.1548C151.612 13.4808 152.319 14.1588 152.771 15.1708C153.23 16.1978 153.161 17.6098 152.557 19.3878L151.13 23.6858Z" fill="white"/>
<path d="M161.356 21.8378C160.54 22.0978 159.779 22.1448 159.044 21.9918C157.588 21.6778 156.519 20.6418 155.703 19.3508C154.175 16.7008 153.543 12.9898 155.497 10.8178C156.01 10.2688 156.658 9.86883 157.474 9.60883C158.29 9.35083 159.051 9.30183 159.787 9.45683C161.274 9.75983 162.327 10.8008 163.11 12.1018C163.925 13.3948 164.444 15.0278 164.523 16.5528C164.633 18.0668 164.374 19.5238 163.333 20.6288C162.821 21.1798 162.172 21.5798 161.356 21.8378ZM162.534 18.2228C162.739 17.2598 162.643 16.1268 162.232 14.8298C161.826 13.5488 161.25 12.5678 160.527 11.8998C159.803 11.2298 158.966 11.0388 158.022 11.3378C157.078 11.6388 156.505 12.2768 156.3 13.2418C156.095 14.2048 156.206 15.3318 156.613 16.6128C157.348 19.0408 158.827 20.7028 160.806 20.1088C161.751 19.8108 162.328 19.1878 162.534 18.2228Z" fill="white"/>
<path d="M168.262 17.9428L173.284 16.9368L173.633 18.6828L165.928 20.2258L165.612 18.6438L168.657 13.7528L169.375 12.5478C169.678 12.0088 169.997 11.0358 169.862 10.3618C169.637 9.24084 168.577 8.64884 167.441 8.87584C166.486 9.06684 165.624 9.71984 164.834 10.8188L163.526 9.67784C164.491 8.24984 165.706 7.39084 167.171 7.09784C168.291 6.87284 169.282 7.03584 170.125 7.56884C170.984 8.09784 171.524 8.91484 171.742 10.0028C171.963 11.1048 171.585 12.4658 170.603 14.0648L168.262 17.9428Z" fill="white"/>
<path d="M178.62 18.3948C177.767 18.4688 177.016 18.3478 176.332 18.0378C174.98 17.4128 174.165 16.1688 173.652 14.7308C172.742 11.8108 172.938 8.05283 175.32 6.36383C175.94 5.93983 176.66 5.69183 177.512 5.61783C178.366 5.54383 179.117 5.66483 179.801 5.97483C181.186 6.59583 181.985 7.84183 182.463 9.28383C182.976 10.7218 183.123 12.4288 182.866 13.9318C182.642 15.4338 182.07 16.7988 180.812 17.6488C180.194 18.0718 179.474 18.3198 178.62 18.3948ZM180.562 15.1248C180.973 14.2298 181.128 13.1048 181.01 11.7498C180.895 10.4118 180.548 9.32983 179.989 8.51983C179.43 7.70883 178.657 7.33783 177.671 7.42383C176.684 7.50983 175.985 8.00783 175.574 8.90283C175.164 9.79783 175.025 10.9228 175.141 12.2598C175.326 14.7868 176.405 16.7328 178.464 16.5878C179.451 16.5018 180.151 16.0218 180.562 15.1248Z" fill="white"/>
</svg>
