<?xml version="1.0" encoding="utf-8"?>
<!-- Generator: Adobe Illustrator 16.0.0, SVG Export Plug-In . SVG Version: 6.00 Build 0)  -->
<!DOCTYPE svg PUBLIC "-//W3C//DTD SVG 1.1//EN" "http://www.w3.org/Graphics/SVG/1.1/DTD/svg11.dtd">
<svg version="1.1" id="Layer_1" xmlns="http://www.w3.org/2000/svg" xmlns:xlink="http://www.w3.org/1999/xlink" x="0px" y="0px"
	 width="1984.252px" height="1984.252px" viewBox="0 0 1984.252 1984.252" enable-background="new 0 0 1984.252 1984.252"
	 xml:space="preserve">
<g>
	<g>
		<path fill-rule="evenodd" clip-rule="evenodd" fill="#FADEBF" d="M974.741,25.522c0.043-0.285,0.059-0.573,0.045-0.861
			c12,0,23.998,0,35.996,0c0.029,0.271,0.047,0.543,0.057,0.816C998.806,25.492,986.774,25.508,974.741,25.522z"/>
		<path fill-rule="evenodd" clip-rule="evenodd" fill="#ED7F01" d="M974.741,25.522c12.033-0.015,24.064-0.03,36.098-0.045
			c23.59,1.336,47.217,2.228,70.764,4.104c48.025,3.823,95.381,11.997,142.127,23.588
			c154.605,38.336,291.447,110.523,410.471,216.315c95.248,84.66,170.641,184.491,226.51,299.009
			c39.027,79.998,66.17,163.923,81.711,251.547c8.646,48.747,13.412,97.894,14.463,147.433
			c3.33,157.094-29.109,306.304-98.305,447.403c-44.627,91.002-102.471,172.757-173.002,245.561
			c-77.074,79.559-165.186,144.03-264.355,193.312c-83.357,41.423-170.939,70.045-262.707,85.854
			c-40.738,7.018-81.729,11.552-123.02,13.228c-162.213,6.579-316.688-24.576-462.967-95.342
			c-87.717-42.435-167.037-97.145-238.176-163.72c-85.51-80.025-154.27-172.541-206.262-277.456
			c-39.148-78.995-66.695-161.927-82.9-248.581c-8.949-47.849-14.188-96.123-15.75-144.799
			C24.052,855.142,59.28,696.419,136.073,547.11c41.066-79.845,92.602-152.413,154.232-217.744
			C397.446,215.794,524.513,132.668,671.593,80.228c60.193-21.46,122.023-36.389,185.268-45.373
			C895.946,29.303,935.259,26.248,974.741,25.522z M1102.134,852.008c7.67,14.615,15.236,30.952,24.475,46.282
			c28.822,47.83,69.936,80.282,124.1,94.888c49.119,13.244,98.76,13.591,148.275,2.181c47.627-10.975,85.951-36.483,114.828-76.03
			c21.727-29.755,37.047-62.596,46.865-98.013c12.348-44.536,16.939-90.19,18.514-136.174c1.836-53.653,0.605-107.208-7.488-160.417
			c-5.885-38.705-15.865-76.135-33.959-111.141c-25.918-50.14-63.58-87.508-117.021-107.512
			c-43.643-16.335-88.789-19.853-134.695-13.525c-73.541,10.137-127.896,48.746-164.322,112.882
			c-7.299,12.852-12.695,26.784-18.75,39.749c-4.914-10.552-9.715-21.878-15.344-32.777
			c-27.754-53.743-69.33-91.708-127.512-110.246c-37.344-11.898-75.621-14.652-114.498-10.763
			c-37.244,3.727-71.9,14.936-102.924,36.16c-43.178,29.541-71.893,70.015-88.811,119.174c-3.383,9.822-6.357,19.784-9.52,29.681
			c-0.227-0.031-0.451-0.062-0.678-0.092c0-56.39,0-112.779,0-169.528c-2.203,0-4.008,0-5.811,0
			c-60.488,0-120.975,0.073-181.461-0.14c-4.871-0.017-6.412,1.578-7.555,5.983c-10.43,40.236-21.105,80.408-31.688,120.604
			c-3.797,14.421-7.535,28.858-11.5,44.053c31.936,0,63.285,0,95.094,0c0,175.549,0,350.432,0,525.559c47.887,0,95.305,0,143.08,0
			c0-59.462,0-118.672,0-178.257c0.559,0.584,0.85,0.759,0.943,1.009c0.412,1.084,0.807,2.179,1.137,3.292
			c6.701,22.59,16.111,44.006,28.01,64.325c28.537,48.728,68.842,82.927,123.508,98.888c42.551,12.423,85.895,13.754,129.594,7.631
			c66.684-9.345,117.164-43.129,151.066-101.217C1087.108,883.055,1094.591,866.695,1102.134,852.008z M626.788,1675.37
			c14.326,17.193,30.686,29.091,50.393,36.303c24.961,9.137,50.705,10.915,76.781,7.397c28.822-3.89,53.947-15.547,72.941-38.271
			c5.455-6.524,9.918-13.877,14.834-20.844c0.107,0.088,0.434,0.253,0.605,0.518c0.637,0.975,1.215,1.986,1.826,2.979
			c13.928,22.64,33.32,38.701,58.18,48.082c24.717,9.327,50.328,11.065,76.238,7.594c36.307-4.865,65.289-21.761,84.51-53.734
			c0.402-0.668,0.438-1.558,0.643-2.344c0.547,0.388,1.094,0.774,1.641,1.161c0,16.426,0,32.853,0,49.326
			c15.988,0,31.496,0,47.234,0c0-2.302,0-4.127,0-5.951c0-51.492-0.096-102.985,0.1-154.479c0.031-8.279,0.678-16.687,2.23-24.808
			c4.707-24.598,16.701-44.381,39.586-56.303c11.736-6.114,24.455-8.558,37.529-9.225c41.25-2.104,63.139,23.621,62.949,57.516
			c-0.352,62.489-0.102,124.982-0.102,187.474c0,1.926,0,3.851,0,5.874c16.252,0,31.822,0,47.85,0c0-11.423,0-22.475,0-34.668
			c8.107,10.473,16.98,18.349,27.488,24.334c18.008,10.259,37.648,14.918,58.07,16.542c27.82,2.212,55.287,0.352,81.688-9.454
			c32.391-12.031,54.291-33.346,58.176-69.247c3.508-32.435-6.902-58.432-38.914-74.518c-9.01-4.526-18.543-8.438-28.262-11.042
			c-21.996-5.892-44.287-10.677-66.402-16.14c-13.902-3.434-27.715-7.249-39.594-15.808c-5.986-4.312-10.443-9.746-12.318-17.036
			c-4.045-15.74,3.488-30.453,20.412-36.941c24.82-9.515,50.133-9.925,75.094-0.335c15.045,5.779,25.018,16.703,29.029,32.595
			c0.729,2.89,1.199,5.845,1.805,8.845c15.566,0,31.004,0,47.068,0c-0.488-4.597-0.773-8.885-1.418-13.12
			c-4.949-32.514-21.992-55.734-53.297-67.022c-30.434-10.975-61.85-12.375-93.508-6.539c-21.332,3.931-41.029,12.01-56.186,28.136
			c-6.352,6.758-11.066,15.055-16.51,22.627c-0.322-0.781-0.936-2.247-1.533-3.721c-8.787-21.627-24.064-36.508-46.326-43.727
			c-24.994-8.105-50.387-8.824-75.781-2.188c-24.982,6.529-45.533,19.319-57.633,43.214c-0.139,0.273-0.68,0.342-1.514,0.729
			c0-30.84,0-61.266,0-91.924c-15.795,0-31.199,0-47.42,0c0,30.867,0,61.444,0,92.021c-16.516-23.334-38.957-36.658-65.686-43.383
			c-17.887-4.499-36.105-5.805-54.51-4.442c-45.883,3.397-81.012,23.896-103.262,64.901c-0.574,1.059-1.34,2.014-2.199,3.291
			c-10.793-21.613-25.342-39.213-45.59-51.844c-1.244-0.775-1.98-3.285-1.984-4.99c-0.113-36.495-0.09-72.989-0.066-109.484
			c0-0.987,0.289-1.974,0.361-2.439c33.291,42.543,78.326,51.646,128.102,43.552c51.854-8.431,83.895-41.114,101.293-90.249
			c0.979,2.555,1.688,4.402,2.393,6.252c14.051,36.805,38.682,63.428,75.895,77.266c30.111,11.198,61.238,12.102,92.488,5.94
			c35.086-6.916,62.787-24.858,80.574-56.633c0.373-0.666,0.508-1.465,0.754-2.202c0.438,0.34,0.875,0.68,1.314,1.02
			c0,18.1,0,36.201,0,54.465c16.725,0,33.143,0,50.061,0c0-2.169,0-4.118,0-6.066c0-53.492-0.086-106.986,0.082-160.479
			c0.027-9.126,0.477-18.348,1.865-27.351c3.631-23.519,13.312-43.958,33.102-58.307c20.291-14.714,43.479-17.455,67.627-14.998
			c9.207,0.938,17.854,3.997,25.514,9.349c17.021,11.892,23.994,28.869,24.023,49.013c0.098,67.656,0.037,135.313,0.037,202.972
			c0,1.941,0,3.884,0,5.781c17.25,0,33.84,0,50.725,0c0-1.623,0-2.935,0-4.245c0-64.99,0.168-129.982-0.146-194.972
			c-0.061-12.761-1.197-25.637-3.209-38.242c-4.604-28.843-18.965-51.127-45.914-64.262c-18.629-9.079-38.545-11.207-58.842-10.885
			c-40.893,0.65-73.451,16.618-94.959,52.473c-0.545,0.906-1.293,1.688-1.945,2.528c-0.348-0.071-0.695-0.142-1.045-0.213
			c0-15.81,0-31.619,0-47.305c-16.162,0-31.562,0-47.416,0c0,22.693,0,45.017,0,68.673c-1.35-2.537-2.057-3.83-2.732-5.141
			c-12.135-23.521-29.188-42.643-52.297-55.615c-30.859-17.323-64.225-19.325-97.889-11.699
			c-47.146,10.682-78.67,40.534-97.67,84.355c-0.865,1.996-1.723,3.996-2.947,6.839c-0.975-2.522-1.566-4.035-2.143-5.553
			c-13.336-35.068-35.436-62.454-70.254-77.929c-29.607-13.16-60.625-14.387-91.99-7.846c-20.373,4.248-39.24,11.937-53.154,28.389
			c-4.104,4.852-7.434,10.359-11.803,16.533c0-14.357,0-27.705,0-40.98c-17.168,0-33.723,0-50.719,0c0,25.408,0,50.42,0,75.432
			c-1.277-1.016-1.814-2.17-2.354-3.32c-15.729-33.556-40.885-57.217-75.484-70.266c-26.895-10.145-54.932-11.738-83.168-7.42
			c-49.182,7.521-85.697,33.207-105.998,78.914c-20.643,46.476-21.467,94.682-6.223,142.893
			c12.281,38.836,37.105,67.206,74.764,83.66c24.842,10.853,51.02,13.476,77.75,11.59c54.309-3.832,94.377-29.302,118.537-78.66
			c0.51-1.044,1.143-2.027,2.111-3.73c0,46.249,0,91.529,0,137.173c-45.566-3.049-83.666,11.845-114.107,47.524
			c0-14.386,0-27.625,0-41.408c-19.143,0-37.869,0-56.969,0c0-16.983,0-33.422,0-50.156c-15.916,0-31.449,0-47.416,0
			c0,16.809,0,33.239,0,50.179c-16.334,0-32.246,0-48.246,0c0,14.232,0,27.947,0,42.173c16.221,0,32.127,0,48.271,0
			c0,2.504,0,4.497,0,6.489c0,57.659-0.057,115.317,0.066,172.977c0.018,7.8,0.574,15.643,1.516,23.388
			c2.799,23.047,13.857,35.08,36.584,39.186c21.607,3.902,43.482,2.178,65.268,1.992c0.244-0.002,0.484-0.398,1.076-0.918
			C626.788,1700.99,626.788,1688.9,626.788,1675.37z"/>
		<path fill-rule="evenodd" clip-rule="evenodd" fill="#FEFEFE" d="M1102.134,852.008c-7.543,14.688-15.025,31.047-24.047,46.508
			c-33.902,58.087-84.383,91.872-151.066,101.217c-43.699,6.123-87.043,4.792-129.594-7.631
			c-54.666-15.961-94.971-50.161-123.508-98.888c-11.898-20.319-21.309-41.735-28.01-64.325c-0.33-1.113-0.725-2.208-1.137-3.292
			c-0.094-0.25-0.385-0.425-0.943-1.009c0,59.585,0,118.795,0,178.257c-47.775,0-95.193,0-143.08,0c0-175.127,0-350.009,0-525.559
			c-31.809,0-63.158,0-95.094,0c3.965-15.195,7.703-29.632,11.5-44.053c10.582-40.196,21.258-80.368,31.688-120.604
			c1.143-4.406,2.684-6,7.555-5.983c60.486,0.212,120.973,0.14,181.461,0.14c1.803,0,3.607,0,5.811,0c0,56.75,0,113.139,0,169.528
			c0.227,0.03,0.451,0.061,0.678,0.092c3.162-9.897,6.137-19.859,9.52-29.681c16.918-49.159,45.633-89.633,88.811-119.174
			c31.023-21.224,65.68-32.433,102.924-36.16c38.877-3.89,77.154-1.136,114.498,10.763c58.182,18.538,99.758,56.502,127.512,110.246
			c5.629,10.899,10.43,22.225,15.344,32.777c6.055-12.965,11.451-26.897,18.75-39.749c36.426-64.136,90.781-102.745,164.322-112.882
			c45.906-6.328,91.053-2.81,134.695,13.525c53.441,20.003,91.104,57.372,117.021,107.512
			c18.094,35.005,28.074,72.436,33.959,111.141c8.094,53.209,9.324,106.765,7.488,160.417
			c-1.574,45.984-6.166,91.639-18.514,136.174c-9.818,35.417-25.139,68.258-46.865,98.013
			c-28.877,39.546-67.201,65.055-114.828,76.03c-49.516,11.41-99.156,11.063-148.275-2.181
			c-54.164-14.606-95.277-47.058-124.1-94.888C1117.37,882.96,1109.804,866.623,1102.134,852.008z"/>
		<path fill-rule="evenodd" clip-rule="evenodd" fill="#FEFDFC" d="M626.788,1675.37c0,13.53,0,25.62,0,37.406
			c-0.592,0.52-0.832,0.916-1.076,0.918c-21.785,0.186-43.66,1.91-65.268-1.992c-22.727-4.105-33.785-16.139-36.584-39.186
			c-0.941-7.745-1.498-15.588-1.516-23.388c-0.123-57.659-0.066-115.317-0.066-172.977c0-1.992,0-3.985,0-6.489
			c-16.145,0-32.051,0-48.271,0c0-14.226,0-27.94,0-42.173c16,0,31.912,0,48.246,0c0-16.939,0-33.37,0-50.179
			c15.967,0,31.5,0,47.416,0c0,16.734,0,33.173,0,50.156c19.1,0,37.826,0,56.969,0c0,13.783,0,27.022,0,41.408
			c30.441-35.68,68.541-50.573,114.107-47.524c0-45.644,0-90.924,0-137.173c-0.969,1.703-1.602,2.687-2.111,3.73
			c-24.16,49.358-64.229,74.828-118.537,78.66c-26.73,1.886-52.908-0.737-77.75-11.59c-37.658-16.454-62.482-44.824-74.764-83.66
			c-15.244-48.211-14.42-96.417,6.223-142.893c20.301-45.707,56.816-71.393,105.998-78.914c28.236-4.318,56.273-2.725,83.168,7.42
			c34.6,13.049,59.756,36.71,75.484,70.266c0.539,1.15,1.076,2.305,2.354,3.32c0-25.012,0-50.023,0-75.432
			c16.996,0,33.551,0,50.719,0c0,13.275,0,26.623,0,40.98c4.369-6.174,7.699-11.682,11.803-16.533
			c13.914-16.452,32.781-24.141,53.154-28.389c31.365-6.541,62.383-5.314,91.99,7.846c34.818,15.475,56.918,42.86,70.254,77.929
			c0.576,1.518,1.168,3.03,2.143,5.553c1.225-2.843,2.082-4.843,2.947-6.839c19-43.821,50.523-73.674,97.67-84.355
			c33.664-7.626,67.029-5.624,97.889,11.699c23.109,12.973,40.162,32.094,52.297,55.615c0.676,1.311,1.383,2.604,2.732,5.141
			c0-23.656,0-45.979,0-68.673c15.854,0,31.254,0,47.416,0c0,15.686,0,31.495,0,47.305c0.35,0.071,0.697,0.142,1.045,0.213
			c0.652-0.84,1.4-1.622,1.945-2.528c21.508-35.854,54.066-51.822,94.959-52.473c20.297-0.322,40.213,1.806,58.842,10.885
			c26.949,13.135,41.311,35.419,45.914,64.262c2.012,12.605,3.148,25.481,3.209,38.242c0.314,64.989,0.146,129.981,0.146,194.972
			c0,1.311,0,2.622,0,4.245c-16.885,0-33.475,0-50.725,0c0-1.897,0-3.84,0-5.781c0-67.658,0.061-135.315-0.037-202.972
			c-0.029-20.144-7.002-37.121-24.023-49.013c-7.66-5.352-16.307-8.411-25.514-9.349c-24.148-2.457-47.336,0.284-67.627,14.998
			c-19.789,14.349-29.471,34.788-33.102,58.307c-1.389,9.003-1.838,18.225-1.865,27.351c-0.168,53.492-0.082,106.986-0.082,160.479
			c0,1.948,0,3.897,0,6.066c-16.918,0-33.336,0-50.061,0c0-18.264,0-36.365,0-54.465c-0.439-0.34-0.877-0.68-1.314-1.02
			c-0.246,0.737-0.381,1.536-0.754,2.202c-17.787,31.774-45.488,49.717-80.574,56.633c-31.25,6.161-62.377,5.258-92.488-5.94
			c-37.213-13.838-61.844-40.461-75.895-77.266c-0.705-1.85-1.414-3.697-2.393-6.252c-17.398,49.135-49.439,81.818-101.293,90.249
			c-49.775,8.094-94.811-1.009-128.102-43.552c-0.072,0.466-0.361,1.452-0.361,2.439c-0.023,36.495-0.047,72.989,0.066,109.484
			c0.004,1.705,0.74,4.215,1.984,4.99c20.248,12.631,34.797,30.23,45.59,51.844c0.859-1.277,1.625-2.232,2.199-3.291
			c22.25-41.005,57.379-61.504,103.262-64.901c18.404-1.362,36.623-0.057,54.51,4.442c26.729,6.725,49.17,20.049,65.686,43.383
			c0-30.577,0-61.154,0-92.021c16.221,0,31.625,0,47.42,0c0,30.658,0,61.084,0,91.924c0.834-0.388,1.375-0.456,1.514-0.729
			c12.1-23.895,32.65-36.685,57.633-43.214c25.395-6.636,50.787-5.917,75.781,2.188c22.262,7.219,37.539,22.1,46.326,43.727
			c0.598,1.474,1.211,2.939,1.533,3.721c5.443-7.572,10.158-15.869,16.51-22.627c15.156-16.126,34.854-24.205,56.186-28.136
			c31.658-5.836,63.074-4.436,93.508,6.539c31.305,11.288,48.348,34.509,53.297,67.022c0.645,4.235,0.93,8.523,1.418,13.12
			c-16.064,0-31.502,0-47.068,0c-0.605-3-1.076-5.955-1.805-8.845c-4.012-15.892-13.984-26.815-29.029-32.595
			c-24.961-9.59-50.273-9.18-75.094,0.335c-16.924,6.488-24.457,21.201-20.412,36.941c1.875,7.29,6.332,12.724,12.318,17.036
			c11.879,8.559,25.691,12.374,39.594,15.808c22.115,5.463,44.406,10.248,66.402,16.14c9.719,2.604,19.252,6.516,28.262,11.042
			c32.012,16.086,42.422,42.083,38.914,74.518c-3.885,35.901-25.785,57.216-58.176,69.247c-26.4,9.806-53.867,11.666-81.688,9.454
			c-20.422-1.624-40.062-6.283-58.07-16.542c-10.508-5.985-19.381-13.861-27.488-24.334c0,12.193,0,23.245,0,34.668
			c-16.027,0-31.598,0-47.85,0c0-2.023,0-3.948,0-5.874c0-62.491-0.25-124.984,0.102-187.474
			c0.189-33.895-21.699-59.62-62.949-57.516c-13.074,0.667-25.793,3.11-37.529,9.225c-22.885,11.922-34.879,31.705-39.586,56.303
			c-1.553,8.121-2.199,16.528-2.23,24.808c-0.195,51.493-0.1,102.986-0.1,154.479c0,1.824,0,3.649,0,5.951
			c-15.738,0-31.246,0-47.234,0c0-16.474,0-32.9,0-49.326c-0.547-0.387-1.094-0.773-1.641-1.161
			c-0.205,0.786-0.24,1.676-0.643,2.344c-19.221,31.974-48.203,48.869-84.51,53.734c-25.91,3.472-51.521,1.733-76.238-7.594
			c-24.859-9.381-44.252-25.442-58.18-48.082c-0.611-0.992-1.189-2.004-1.826-2.979c-0.172-0.265-0.498-0.43-0.605-0.518
			c-4.916,6.967-9.379,14.319-14.834,20.844c-18.994,22.724-44.119,34.381-72.941,38.271c-26.076,3.518-51.82,1.739-76.781-7.397
			C657.474,1704.461,641.114,1692.563,626.788,1675.37z M701.257,1208.278c0.002-22.586-2.967-40.225-10.412-57.514
			c-15.211-35.32-41.289-56.184-80.41-58.304c-40.939-2.218-73.131,21.51-88.115,56.549c-9.508,22.231-12.014,45.476-10.805,69.348
			c0.908,17.963,4.354,35.353,12.277,51.585c15.67,32.094,41.174,50.736,77.027,52.768c35.271,1.998,63.123-12.436,82.189-42.392
			C696.942,1258.424,701.233,1233.829,701.257,1208.278z M885.636,1322.935c39.408,0,67.252-18.311,81.078-55.154
			c13.105-34.913,14.988-70.865,4.33-106.787c-15.057-50.743-53.566-75.412-105.836-67.235
			c-32.764,5.125-53.811,25.971-65.271,56.065c-13.67,35.888-13.865,72.678-2.262,109.158
			C810.827,1300.321,842.544,1322.935,885.636,1322.935z M1064.997,1519.638c-9.934,0-19.242-0.129-28.541,0.066
			c-3.482,0.073-5.066-0.658-6.037-4.52c-5.752-22.886-18.627-39.922-41.551-47.966c-12.602-4.421-25.613-5.208-38.898-3.955
			c-31.26,2.946-54.035,18.144-66.311,47.128c-13.955,32.95-15.096,67.186-7.203,101.834c3.062,13.44,8.496,25.938,16.863,36.957
			c16.955,22.329,40.016,30.594,67.42,29.5c34.982-1.396,60.631-21.247,69.963-54.954c1.309-4.729,2.26-9.56,3.451-14.668
			c10.461,0,20.561,0,30.844,0C1064.997,1579.175,1064.997,1549.729,1064.997,1519.638z M1274.294,1263.186
			c0-13.814,0-26.917,0-40.265c-70.193,0-140.096,0-211.127,0c0.887,8.858,1.184,17.492,2.695,25.906
			c5.902,32.864,23.879,56.381,55.508,68.123c20.986,7.791,42.758,8.148,64.422,2.874c25.586-6.229,42.096-22.394,49.895-47.501
			c0.918-2.953,1.725-5.941,2.648-9.138C1250.466,1263.186,1262.247,1263.186,1274.294,1263.186z M1332.603,1623.343
			c2.482,31.884,20.838,45.167,43.781,51.459c16.768,4.596,33.852,4.778,51.004,3.094c11.502-1.129,22.682-3.6,32.814-9.479
			c23.744-13.774,25.41-45.613,2.613-60.801c-8.014-5.338-17.35-9.399-26.656-11.946c-22.102-6.05-44.602-10.636-66.84-16.217
			c-18.615-4.674-36.785-10.713-52.146-22.804c-5.107-4.021-9.525-8.912-14.375-13.515c0,26.672,0,53.237,0,80.208
			C1312.757,1623.343,1322.519,1623.343,1332.603,1623.343z M826.692,1622.806c-1.818-12.839-3.572-25.215-5.297-37.392
			c-59.27,0-118.266,0-177.924,0c0.471,6.696,0.496,13.029,1.422,19.228c4.832,32.354,20.66,56.608,52.289,68.321
			c19.354,7.167,39.418,7.863,59.428,3.106c20.625-4.901,35.811-17.055,44.693-36.492c2.398-5.25,3.99-10.871,6.115-16.771
			C813.663,1622.806,820.091,1622.806,826.692,1622.806z M1239.272,1178.139c-3.443-32.847-16.33-59.561-45.811-75.131
			c-31.574-16.677-63.463-15.451-93.006,5.103c-23.936,16.651-34.01,41.441-36.615,70.028
			C1122.522,1178.139,1180.456,1178.139,1239.272,1178.139z M807.354,1543.055c4.301-38.577-35.729-79.327-79.336-80.331
			c-55.762-1.284-82,42.981-83.785,80.331C698.622,1543.055,753.003,1543.055,807.354,1543.055z M623.12,1672.904
			c-37.703-68.904-41.795-136.226,1.891-203.169c-18.096,0-36.494,0-55.33,0c0,1.541,0,2.83,0,4.12
			c0,57.482-0.004,114.964,0.01,172.446c0,2.496,0.039,5.002,0.254,7.487c0.893,10.302,4.803,15.605,15.041,16.847
			C597.642,1672.171,610.476,1672.22,623.12,1672.904z"/>
		<path fill-rule="evenodd" clip-rule="evenodd" fill="#ED7F01" d="M701.263,1208.28c-0.029,25.549-4.32,50.144-18.254,72.038
			c-19.066,29.956-46.918,44.39-82.189,42.392c-35.854-2.031-61.357-20.674-77.027-52.768
			c-7.924-16.232-11.369-33.622-12.277-51.585c-1.209-23.872,1.297-47.116,10.805-69.348c14.984-35.039,47.176-58.767,88.115-56.549
			c39.121,2.12,65.199,22.983,80.41,58.304C698.29,1168.054,701.259,1185.692,701.263,1208.28z"/>
		<path fill-rule="evenodd" clip-rule="evenodd" fill="#ED7F01" d="M885.636,1322.935c-43.092,0-74.809-22.613-87.961-63.953
			c-11.604-36.48-11.408-73.271,2.262-109.158c11.461-30.095,32.508-50.94,65.271-56.065c52.27-8.177,90.779,16.492,105.836,67.235
			c10.658,35.922,8.775,71.874-4.33,106.787C952.888,1304.624,925.044,1322.935,885.636,1322.935z"/>
		<path fill-rule="evenodd" clip-rule="evenodd" fill="#ED7F02" d="M1064.997,1519.638c0,30.092,0,59.537,0,89.423
			c-10.283,0-20.383,0-30.844,0c-1.191,5.108-2.143,9.938-3.451,14.668c-9.332,33.707-34.98,53.558-69.963,54.954
			c-27.404,1.094-50.465-7.171-67.42-29.5c-8.367-11.02-13.801-23.517-16.863-36.957c-7.893-34.648-6.752-68.884,7.203-101.834
			c12.275-28.984,35.051-44.182,66.311-47.128c13.285-1.253,26.297-0.466,38.898,3.955c22.924,8.044,35.799,25.08,41.551,47.966
			c0.971,3.861,2.555,4.593,6.037,4.52C1045.755,1519.509,1055.063,1519.638,1064.997,1519.638z"/>
		<path fill-rule="evenodd" clip-rule="evenodd" fill="#ED7F03" d="M1274.294,1263.186c-12.047,0-23.828,0-35.959,0
			c-0.924,3.196-1.73,6.185-2.648,9.138c-7.799,25.107-24.309,41.271-49.895,47.501c-21.664,5.274-43.436,4.917-64.422-2.874
			c-31.629-11.742-49.605-35.259-55.508-68.123c-1.512-8.414-1.809-17.048-2.695-25.906c71.031,0,140.934,0,211.127,0
			C1274.294,1236.269,1274.294,1249.371,1274.294,1263.186z"/>
		<path fill-rule="evenodd" clip-rule="evenodd" fill="#ED7F02" d="M1332.603,1623.343c-10.084,0-19.846,0-29.805,0
			c0-26.971,0-53.536,0-80.208c4.85,4.603,9.268,9.494,14.375,13.515c15.361,12.091,33.531,18.13,52.146,22.804
			c22.238,5.581,44.738,10.167,66.84,16.217c9.307,2.547,18.643,6.608,26.656,11.946c22.797,15.188,21.131,47.026-2.613,60.801
			c-10.133,5.879-21.312,8.35-32.814,9.479c-17.152,1.685-34.236,1.502-51.004-3.094
			C1353.44,1668.51,1335.085,1655.227,1332.603,1623.343z"/>
		<path fill-rule="evenodd" clip-rule="evenodd" fill="#ED7F01" d="M826.692,1622.806c-6.602,0-13.029,0-19.273,0
			c-2.125,5.9-3.717,11.521-6.115,16.771c-8.883,19.438-24.068,31.591-44.693,36.492c-20.01,4.757-40.074,4.061-59.428-3.106
			c-31.629-11.713-47.457-35.967-52.289-68.321c-0.926-6.198-0.951-12.531-1.422-19.228c59.658,0,118.654,0,177.924,0
			C823.12,1597.591,824.874,1609.967,826.692,1622.806z"/>
		<path fill-rule="evenodd" clip-rule="evenodd" fill="#ED7F03" d="M1239.272,1178.139c-58.816,0-116.75,0-175.432,0
			c2.605-28.587,12.68-53.377,36.615-70.028c29.543-20.554,61.432-21.779,93.006-5.103
			C1222.942,1118.578,1235.829,1145.292,1239.272,1178.139z"/>
		<path fill-rule="evenodd" clip-rule="evenodd" fill="#ED7F03" d="M807.354,1543.055c-54.352,0-108.732,0-163.121,0
			c1.785-37.35,28.023-81.615,83.785-80.331C771.626,1463.728,811.655,1504.478,807.354,1543.055z"/>
		<path fill-rule="evenodd" clip-rule="evenodd" fill="#ED7F02" d="M623.12,1672.904c-12.645-0.685-25.479-0.733-38.135-2.269
			c-10.238-1.241-14.148-6.545-15.041-16.847c-0.215-2.485-0.254-4.991-0.254-7.487c-0.014-57.482-0.01-114.964-0.01-172.446
			c0-1.29,0-2.579,0-4.12c18.836,0,37.234,0,55.33,0C581.325,1536.679,585.417,1604,623.12,1672.904z"/>
	</g>
</g>
</svg>
